<?xml version="1.0" encoding="UTF-8"?>
<!DOCTYPE svg PUBLIC "-//W3C//DTD SVG 1.1//EN" "http://www.w3.org/Graphics/SVG/1.1/DTD/svg11.dtd">
<svg version="1.2" xmlns="http://www.w3.org/2000/svg" xmlns:xlink="http://www.w3.org/1999/xlink" x="0" y="0" width="3021" height="460" viewBox="0 0 3021 460">
<style type="text/css"><![CDATA[
text { font:12px Dialog; }
]]></style>
<rect x="-485" y="-485" width="3991" height="1430" style="fill:rgb(255,255,255);stroke:none" />
<clipPath id="clip1"><path d="M15,15 L3006,15 L3006,445 L15,445 Z M26,274 C21.5820313,274 18,277.5820313 18,282 L18,335 C18,339.4179688 21.5820313,343 26,343 L551,343 C555.4179688,343 559,339.4179688 559,335 L559,282 C559,277.5820313 555.4179688,274 551,274 Z M26,274 Z M620,288 C617.2382813,288 615,290.2382813 615,293 L615,324 C615,326.7617188 617.2382813,329 620,329 L753,329 C755.7617188,329 758,326.7617188 758,324 L758,293 C758,290.2382813 755.7617188,288 753,288 Z M620,288 Z M806,288 C803.2382813,288 801,290.2382813 801,293 L801,324 C801,326.7617188 803.2382813,329 806,329 L894,329 C896.7617188,329 899,326.7617188 899,324 L899,293 C899,290.2382813 896.7617188,288 894,288 Z M806,288 Z M1072,288 C1069.2382813,288 1067,290.2382813 1067,293 L1067,324 C1067,326.7617188 1069.2382813,329 1072,329 L1212,329 C1214.7617188,329 1217,326.7617188 1217,324 L1217,293 C1217,290.2382813 1214.7617188,288 1212,288 Z M1072,288 Z M1265,288 C1262.2382813,288 1260,290.2382813 1260,293 L1260,324 C1260,326.7617188 1262.2382813,329 1265,329 L1450,329 C1452.7617188,329 1455,326.7617188 1455,324 L1455,293 C1455,290.2382813 1452.7617188,288 1450,288 Z M1265,288 Z M1503,288 C1500.2382813,288 1498,290.2382813 1498,293 L1498,324 C1498,326.7617188 1500.2382813,329 1503,329 L1988,329 C1990.7617188,329 1993,326.7617188 1993,324 L1993,293 C1993,290.2382813 1990.7617188,288 1988,288 Z M1503,288 Z M2041,288 C2038.2382813,288 2036,290.2382813 2036,293 L2036,324 C2036,326.7617188 2038.2382813,329 2041,329 L2182,329 C2184.7617188,329 2187,326.7617188 2187,324 L2187,293 C2187,290.2382813 2184.7617188,288 2182,288 Z M2041,288 Z M2296,288 C2293.2382813,288 2291,290.2382813 2291,293 L2291,324 C2291,326.7617188 2293.2382813,329 2296,329 L2473,329 C2475.7617188,329 2478,326.7617188 2478,324 L2478,293 C2478,290.2382813 2475.7617188,288 2473,288 Z M2296,288 Z M2664,288 C2661.2382813,288 2659,290.2382813 2659,293 L2659,324 C2659,326.7617188 2661.2382813,329 2664,329 L2740,329 C2742.7617188,329 2745,326.7617188 2745,324 L2745,293 C2745,290.2382813 2742.7617188,288 2740,288 Z M2664,288 Z M2664,288" /></clipPath>
<path d="M289,309 L2702,309" style="fill:none;stroke:rgb(1,124,152);stroke-width:3" clip-path="url(#clip1)" />
<clipPath id="clip2"><path d="M15,15 L3006,15 L3006,445 L15,445 Z M26,274 C21.5820313,274 18,277.5820313 18,282 L18,335 C18,339.4179688 21.5820313,343 26,343 L551,343 C555.4179688,343 559,339.4179688 559,335 L559,282 C559,277.5820313 555.4179688,274 551,274 Z M26,274 Z M620,288 C617.2382813,288 615,290.2382813 615,293 L615,324 C615,326.7617188 617.2382813,329 620,329 L753,329 C755.7617188,329 758,326.7617188 758,324 L758,293 C758,290.2382813 755.7617188,288 753,288 Z M620,288 Z M806,288 C803.2382813,288 801,290.2382813 801,293 L801,324 C801,326.7617188 803.2382813,329 806,329 L894,329 C896.7617188,329 899,326.7617188 899,324 L899,293 C899,290.2382813 896.7617188,288 894,288 Z M806,288 Z M1072,288 C1069.2382813,288 1067,290.2382813 1067,293 L1067,324 C1067,326.7617188 1069.2382813,329 1072,329 L1212,329 C1214.7617188,329 1217,326.7617188 1217,324 L1217,293 C1217,290.2382813 1214.7617188,288 1212,288 Z M1072,288 Z M1265,288 C1262.2382813,288 1260,290.2382813 1260,293 L1260,324 C1260,326.7617188 1262.2382813,329 1265,329 L1450,329 C1452.7617188,329 1455,326.7617188 1455,324 L1455,293 C1455,290.2382813 1452.7617188,288 1450,288 Z M1265,288 Z M1503,288 C1500.2382813,288 1498,290.2382813 1498,293 L1498,324 C1498,326.7617188 1500.2382813,329 1503,329 L1988,329 C1990.7617188,329 1993,326.7617188 1993,324 L1993,293 C1993,290.2382813 1990.7617188,288 1988,288 Z M1503,288 Z M2041,288 C2038.2382813,288 2036,290.2382813 2036,293 L2036,324 C2036,326.7617188 2038.2382813,329 2041,329 L2182,329 C2184.7617188,329 2187,326.7617188 2187,324 L2187,293 C2187,290.2382813 2184.7617188,288 2182,288 Z M2041,288 Z M2296,288 C2293.2382813,288 2291,290.2382813 2291,293 L2291,324 C2291,326.7617188 2293.2382813,329 2296,329 L2473,329 C2475.7617188,329 2478,326.7617188 2478,324 L2478,293 C2478,290.2382813 2475.7617188,288 2473,288 Z M2296,288 Z M2664,288 C2661.2382813,288 2659,290.2382813 2659,293 L2659,324 C2659,326.7617188 2661.2382813,329 2664,329 L2740,329 C2742.7617188,329 2745,326.7617188 2745,324 L2745,293 C2745,290.2382813 2742.7617188,288 2740,288 Z M2664,288 Z M2664,288" /></clipPath>
<path d="M289,309 L2702,309" style="fill:none;stroke:rgb(0,178,161);stroke-width:3" clip-path="url(#clip2)" />
<clipPath id="clip3"><path d="M15,15 L3006,15 L3006,445 L15,445 Z M26,274 C21.5820313,274 18,277.5820313 18,282 L18,335 C18,339.4179688 21.5820313,343 26,343 L551,343 C555.4179688,343 559,339.4179688 559,335 L559,282 C559,277.5820313 555.4179688,274 551,274 Z M26,274 Z M620,288 C617.2382813,288 615,290.2382813 615,293 L615,324 C615,326.7617188 617.2382813,329 620,329 L753,329 C755.7617188,329 758,326.7617188 758,324 L758,293 C758,290.2382813 755.7617188,288 753,288 Z M620,288 Z M806,288 C803.2382813,288 801,290.2382813 801,293 L801,324 C801,326.7617188 803.2382813,329 806,329 L894,329 C896.7617188,329 899,326.7617188 899,324 L899,293 C899,290.2382813 896.7617188,288 894,288 Z M806,288 Z M1072,288 C1069.2382813,288 1067,290.2382813 1067,293 L1067,324 C1067,326.7617188 1069.2382813,329 1072,329 L1212,329 C1214.7617188,329 1217,326.7617188 1217,324 L1217,293 C1217,290.2382813 1214.7617188,288 1212,288 Z M1072,288 Z M1265,288 C1262.2382813,288 1260,290.2382813 1260,293 L1260,324 C1260,326.7617188 1262.2382813,329 1265,329 L1450,329 C1452.7617188,329 1455,326.7617188 1455,324 L1455,293 C1455,290.2382813 1452.7617188,288 1450,288 Z M1265,288 Z M1503,288 C1500.2382813,288 1498,290.2382813 1498,293 L1498,324 C1498,326.7617188 1500.2382813,329 1503,329 L1988,329 C1990.7617188,329 1993,326.7617188 1993,324 L1993,293 C1993,290.2382813 1990.7617188,288 1988,288 Z M1503,288 Z M2041,288 C2038.2382813,288 2036,290.2382813 2036,293 L2036,324 C2036,326.7617188 2038.2382813,329 2041,329 L2182,329 C2184.7617188,329 2187,326.7617188 2187,324 L2187,293 C2187,290.2382813 2184.7617188,288 2182,288 Z M2041,288 Z M2296,288 C2293.2382813,288 2291,290.2382813 2291,293 L2291,324 C2291,326.7617188 2293.2382813,329 2296,329 L2473,329 C2475.7617188,329 2478,326.7617188 2478,324 L2478,293 C2478,290.2382813 2475.7617188,288 2473,288 Z M2296,288 Z M2664,288 C2661.2382813,288 2659,290.2382813 2659,293 L2659,324 C2659,326.7617188 2661.2382813,329 2664,329 L2740,329 C2742.7617188,329 2745,326.7617188 2745,324 L2745,293 C2745,290.2382813 2742.7617188,288 2740,288 Z M2664,288 Z M2664,288" /></clipPath>
<path d="M289,309 L2702,309" style="fill:none;stroke:rgb(255,221,0);stroke-width:3" clip-path="url(#clip3)" />
<clipPath id="clip4"><path d="M15,15 L3006,15 L3006,445 L15,445 Z M26,274 C21.5820313,274 18,277.5820313 18,282 L18,335 C18,339.4179688 21.5820313,343 26,343 L551,343 C555.4179688,343 559,339.4179688 559,335 L559,282 C559,277.5820313 555.4179688,274 551,274 Z M26,274 Z M620,288 C617.2382813,288 615,290.2382813 615,293 L615,324 C615,326.7617188 617.2382813,329 620,329 L753,329 C755.7617188,329 758,326.7617188 758,324 L758,293 C758,290.2382813 755.7617188,288 753,288 Z M620,288 Z M806,288 C803.2382813,288 801,290.2382813 801,293 L801,324 C801,326.7617188 803.2382813,329 806,329 L894,329 C896.7617188,329 899,326.7617188 899,324 L899,293 C899,290.2382813 896.7617188,288 894,288 Z M806,288 Z M1072,288 C1069.2382813,288 1067,290.2382813 1067,293 L1067,324 C1067,326.7617188 1069.2382813,329 1072,329 L1212,329 C1214.7617188,329 1217,326.7617188 1217,324 L1217,293 C1217,290.2382813 1214.7617188,288 1212,288 Z M1072,288 Z M1265,288 C1262.2382813,288 1260,290.2382813 1260,293 L1260,324 C1260,326.7617188 1262.2382813,329 1265,329 L1450,329 C1452.7617188,329 1455,326.7617188 1455,324 L1455,293 C1455,290.2382813 1452.7617188,288 1450,288 Z M1265,288 Z M1503,288 C1500.2382813,288 1498,290.2382813 1498,293 L1498,324 C1498,326.7617188 1500.2382813,329 1503,329 L1988,329 C1990.7617188,329 1993,326.7617188 1993,324 L1993,293 C1993,290.2382813 1990.7617188,288 1988,288 Z M1503,288 Z M2041,288 C2038.2382813,288 2036,290.2382813 2036,293 L2036,324 C2036,326.7617188 2038.2382813,329 2041,329 L2182,329 C2184.7617188,329 2187,326.7617188 2187,324 L2187,293 C2187,290.2382813 2184.7617188,288 2182,288 Z M2041,288 Z M2296,288 C2293.2382813,288 2291,290.2382813 2291,293 L2291,324 C2291,326.7617188 2293.2382813,329 2296,329 L2473,329 C2475.7617188,329 2478,326.7617188 2478,324 L2478,293 C2478,290.2382813 2475.7617188,288 2473,288 Z M2296,288 Z M2664,288 C2661.2382813,288 2659,290.2382813 2659,293 L2659,324 C2659,326.7617188 2661.2382813,329 2664,329 L2740,329 C2742.7617188,329 2745,326.7617188 2745,324 L2745,293 C2745,290.2382813 2742.7617188,288 2740,288 Z M2664,288 Z M2664,288" /></clipPath>
<path d="M289,309 L2702,309" style="fill:none;stroke:rgb(252,143,0);stroke-width:3" clip-path="url(#clip4)" />
<clipPath id="clip5"><path d="M15,15 L3006,15 L3006,445 L15,445 Z M26,274 C21.5820313,274 18,277.5820313 18,282 L18,335 C18,339.4179688 21.5820313,343 26,343 L551,343 C555.4179688,343 559,339.4179688 559,335 L559,282 C559,277.5820313 555.4179688,274 551,274 Z M26,274 Z M620,288 C617.2382813,288 615,290.2382813 615,293 L615,324 C615,326.7617188 617.2382813,329 620,329 L753,329 C755.7617188,329 758,326.7617188 758,324 L758,293 C758,290.2382813 755.7617188,288 753,288 Z M620,288 Z M806,288 C803.2382813,288 801,290.2382813 801,293 L801,324 C801,326.7617188 803.2382813,329 806,329 L894,329 C896.7617188,329 899,326.7617188 899,324 L899,293 C899,290.2382813 896.7617188,288 894,288 Z M806,288 Z M1072,288 C1069.2382813,288 1067,290.2382813 1067,293 L1067,324 C1067,326.7617188 1069.2382813,329 1072,329 L1212,329 C1214.7617188,329 1217,326.7617188 1217,324 L1217,293 C1217,290.2382813 1214.7617188,288 1212,288 Z M1072,288 Z M1265,288 C1262.2382813,288 1260,290.2382813 1260,293 L1260,324 C1260,326.7617188 1262.2382813,329 1265,329 L1450,329 C1452.7617188,329 1455,326.7617188 1455,324 L1455,293 C1455,290.2382813 1452.7617188,288 1450,288 Z M1265,288 Z M1503,288 C1500.2382813,288 1498,290.2382813 1498,293 L1498,324 C1498,326.7617188 1500.2382813,329 1503,329 L1988,329 C1990.7617188,329 1993,326.7617188 1993,324 L1993,293 C1993,290.2382813 1990.7617188,288 1988,288 Z M1503,288 Z M2041,288 C2038.2382813,288 2036,290.2382813 2036,293 L2036,324 C2036,326.7617188 2038.2382813,329 2041,329 L2182,329 C2184.7617188,329 2187,326.7617188 2187,324 L2187,293 C2187,290.2382813 2184.7617188,288 2182,288 Z M2041,288 Z M2296,288 C2293.2382813,288 2291,290.2382813 2291,293 L2291,324 C2291,326.7617188 2293.2382813,329 2296,329 L2473,329 C2475.7617188,329 2478,326.7617188 2478,324 L2478,293 C2478,290.2382813 2475.7617188,288 2473,288 Z M2296,288 Z M2664,288 C2661.2382813,288 2659,290.2382813 2659,293 L2659,324 C2659,326.7617188 2661.2382813,329 2664,329 L2740,329 C2742.7617188,329 2745,326.7617188 2745,324 L2745,293 C2745,290.2382813 2742.7617188,288 2740,288 Z M2664,288 Z M2664,288" /></clipPath>
<path d="M289,309 L2702,309" style="fill:none;stroke:rgb(255,21,0);stroke-width:3" clip-path="url(#clip5)" />
<clipPath id="clip6"><path d="M15,15 L3006,15 L3006,445 L15,445 Z M26,274 C21.5820313,274 18,277.5820313 18,282 L18,335 C18,339.4179688 21.5820313,343 26,343 L551,343 C555.4179688,343 559,339.4179688 559,335 L559,282 C559,277.5820313 555.4179688,274 551,274 Z M26,274 Z M620,288 C617.2382813,288 615,290.2382813 615,293 L615,324 C615,326.7617188 617.2382813,329 620,329 L753,329 C755.7617188,329 758,326.7617188 758,324 L758,293 C758,290.2382813 755.7617188,288 753,288 Z M620,288 Z M806,288 C803.2382813,288 801,290.2382813 801,293 L801,324 C801,326.7617188 803.2382813,329 806,329 L894,329 C896.7617188,329 899,326.7617188 899,324 L899,293 C899,290.2382813 896.7617188,288 894,288 Z M806,288 Z M1072,288 C1069.2382813,288 1067,290.2382813 1067,293 L1067,324 C1067,326.7617188 1069.2382813,329 1072,329 L1212,329 C1214.7617188,329 1217,326.7617188 1217,324 L1217,293 C1217,290.2382813 1214.7617188,288 1212,288 Z M1072,288 Z M1265,288 C1262.2382813,288 1260,290.2382813 1260,293 L1260,324 C1260,326.7617188 1262.2382813,329 1265,329 L1450,329 C1452.7617188,329 1455,326.7617188 1455,324 L1455,293 C1455,290.2382813 1452.7617188,288 1450,288 Z M1265,288 Z M1503,288 C1500.2382813,288 1498,290.2382813 1498,293 L1498,324 C1498,326.7617188 1500.2382813,329 1503,329 L1988,329 C1990.7617188,329 1993,326.7617188 1993,324 L1993,293 C1993,290.2382813 1990.7617188,288 1988,288 Z M1503,288 Z M2041,288 C2038.2382813,288 2036,290.2382813 2036,293 L2036,324 C2036,326.7617188 2038.2382813,329 2041,329 L2182,329 C2184.7617188,329 2187,326.7617188 2187,324 L2187,293 C2187,290.2382813 2184.7617188,288 2182,288 Z M2041,288 Z M2296,288 C2293.2382813,288 2291,290.2382813 2291,293 L2291,324 C2291,326.7617188 2293.2382813,329 2296,329 L2473,329 C2475.7617188,329 2478,326.7617188 2478,324 L2478,293 C2478,290.2382813 2475.7617188,288 2473,288 Z M2296,288 Z M2664,288 C2661.2382813,288 2659,290.2382813 2659,293 L2659,324 C2659,326.7617188 2661.2382813,329 2664,329 L2740,329 C2742.7617188,329 2745,326.7617188 2745,324 L2745,293 C2745,290.2382813 2742.7617188,288 2740,288 Z M2664,288 Z M2664,288" /></clipPath>
<path d="M289,309 L2702,309" style="fill:none;stroke:rgb(0,176,76);stroke-width:3" clip-path="url(#clip6)" />
<clipPath id="clip7"><path d="M15,15 L3006,15 L3006,445 L15,445 Z M26,274 C21.5820313,274 18,277.5820313 18,282 L18,335 C18,339.4179688 21.5820313,343 26,343 L551,343 C555.4179688,343 559,339.4179688 559,335 L559,282 C559,277.5820313 555.4179688,274 551,274 Z M26,274 Z M620,288 C617.2382813,288 615,290.2382813 615,293 L615,324 C615,326.7617188 617.2382813,329 620,329 L753,329 C755.7617188,329 758,326.7617188 758,324 L758,293 C758,290.2382813 755.7617188,288 753,288 Z M620,288 Z M806,288 C803.2382813,288 801,290.2382813 801,293 L801,324 C801,326.7617188 803.2382813,329 806,329 L894,329 C896.7617188,329 899,326.7617188 899,324 L899,293 C899,290.2382813 896.7617188,288 894,288 Z M806,288 Z M1072,288 C1069.2382813,288 1067,290.2382813 1067,293 L1067,324 C1067,326.7617188 1069.2382813,329 1072,329 L1212,329 C1214.7617188,329 1217,326.7617188 1217,324 L1217,293 C1217,290.2382813 1214.7617188,288 1212,288 Z M1072,288 Z M1265,288 C1262.2382813,288 1260,290.2382813 1260,293 L1260,324 C1260,326.7617188 1262.2382813,329 1265,329 L1450,329 C1452.7617188,329 1455,326.7617188 1455,324 L1455,293 C1455,290.2382813 1452.7617188,288 1450,288 Z M1265,288 Z M1503,288 C1500.2382813,288 1498,290.2382813 1498,293 L1498,324 C1498,326.7617188 1500.2382813,329 1503,329 L1988,329 C1990.7617188,329 1993,326.7617188 1993,324 L1993,293 C1993,290.2382813 1990.7617188,288 1988,288 Z M1503,288 Z M2041,288 C2038.2382813,288 2036,290.2382813 2036,293 L2036,324 C2036,326.7617188 2038.2382813,329 2041,329 L2182,329 C2184.7617188,329 2187,326.7617188 2187,324 L2187,293 C2187,290.2382813 2184.7617188,288 2182,288 Z M2041,288 Z M2296,288 C2293.2382813,288 2291,290.2382813 2291,293 L2291,324 C2291,326.7617188 2293.2382813,329 2296,329 L2473,329 C2475.7617188,329 2478,326.7617188 2478,324 L2478,293 C2478,290.2382813 2475.7617188,288 2473,288 Z M2296,288 Z M2664,288 C2661.2382813,288 2659,290.2382813 2659,293 L2659,324 C2659,326.7617188 2661.2382813,329 2664,329 L2740,329 C2742.7617188,329 2745,326.7617188 2745,324 L2745,293 C2745,290.2382813 2742.7617188,288 2740,288 Z M2664,288 Z M2664,288" /></clipPath>
<path d="M289,309 L2702,309" style="fill:none;stroke:rgb(1,124,152);stroke-width:3" clip-path="url(#clip7)" />
<clipPath id="clip8"><path d="M15,15 L3006,15 L3006,445 L15,445 Z M26,274 C21.5820313,274 18,277.5820313 18,282 L18,335 C18,339.4179688 21.5820313,343 26,343 L551,343 C555.4179688,343 559,339.4179688 559,335 L559,282 C559,277.5820313 555.4179688,274 551,274 Z M26,274 Z M620,288 C617.2382813,288 615,290.2382813 615,293 L615,324 C615,326.7617188 617.2382813,329 620,329 L753,329 C755.7617188,329 758,326.7617188 758,324 L758,293 C758,290.2382813 755.7617188,288 753,288 Z M620,288 Z M806,288 C803.2382813,288 801,290.2382813 801,293 L801,324 C801,326.7617188 803.2382813,329 806,329 L894,329 C896.7617188,329 899,326.7617188 899,324 L899,293 C899,290.2382813 896.7617188,288 894,288 Z M806,288 Z M1072,288 C1069.2382813,288 1067,290.2382813 1067,293 L1067,324 C1067,326.7617188 1069.2382813,329 1072,329 L1212,329 C1214.7617188,329 1217,326.7617188 1217,324 L1217,293 C1217,290.2382813 1214.7617188,288 1212,288 Z M1072,288 Z M1265,288 C1262.2382813,288 1260,290.2382813 1260,293 L1260,324 C1260,326.7617188 1262.2382813,329 1265,329 L1450,329 C1452.7617188,329 1455,326.7617188 1455,324 L1455,293 C1455,290.2382813 1452.7617188,288 1450,288 Z M1265,288 Z M1503,288 C1500.2382813,288 1498,290.2382813 1498,293 L1498,324 C1498,326.7617188 1500.2382813,329 1503,329 L1988,329 C1990.7617188,329 1993,326.7617188 1993,324 L1993,293 C1993,290.2382813 1990.7617188,288 1988,288 Z M1503,288 Z M2041,288 C2038.2382813,288 2036,290.2382813 2036,293 L2036,324 C2036,326.7617188 2038.2382813,329 2041,329 L2182,329 C2184.7617188,329 2187,326.7617188 2187,324 L2187,293 C2187,290.2382813 2184.7617188,288 2182,288 Z M2041,288 Z M2296,288 C2293.2382813,288 2291,290.2382813 2291,293 L2291,324 C2291,326.7617188 2293.2382813,329 2296,329 L2473,329 C2475.7617188,329 2478,326.7617188 2478,324 L2478,293 C2478,290.2382813 2475.7617188,288 2473,288 Z M2296,288 Z M2664,288 C2661.2382813,288 2659,290.2382813 2659,293 L2659,324 C2659,326.7617188 2661.2382813,329 2664,329 L2740,329 C2742.7617188,329 2745,326.7617188 2745,324 L2745,293 C2745,290.2382813 2742.7617188,288 2740,288 Z M2664,288 Z M2664,288" /></clipPath>
<path d="M289,309 L2702,309" style="fill:none;stroke:rgb(0,178,161);stroke-width:3" clip-path="url(#clip8)" />
<clipPath id="clip9"><path d="M14,14 L3007,14 L3007,446 L14,446 L14,14 Z" /></clipPath>
<path d="M559,309.8476563 L569,309.8945313" style="fill:none;stroke:rgb(85,142,213);stroke-width:3" clip-path="url(#clip9)" />
<clipPath id="clip10"><path d="M14,270 L564,270 L564,348 L14,348 L14,270 Z" /></clipPath>
<path d="M26,274 C21.5820313,274 18,277.5820313 18,282 L18,335 C18,339.4179688 21.5820313,343 26,343 L551,343 C555.4179688,343 559,339.4179688 559,335 L559,282 C559,277.5820313 555.4179688,274 551,274 Z M26,274" style="fill:rgb(220,230,242);stroke:none" clip-path="url(#clip10)" />
<clipPath id="clip11"><path d="M14,270 L564,270 L564,348 L14,348 L14,270 Z" /></clipPath>
<path d="M26,274 C21.5820313,274 18,277.5820313 18,282 L18,335 C18,339.4179688 21.5820313,343 26,343 L551,343 C555.4179688,343 559,339.4179688 559,335 L559,282 C559,277.5820313 555.4179688,274 551,274 Z M26,274" style="fill:none;stroke:rgb(85,142,213);stroke-width:5" clip-path="url(#clip11)" />
<text x="53" y="313" style="font:18px Open Sans">How to install XMind 8 on generic Linux</text>
<clipPath id="clip12"><path d="M614,237 L1056,237 L1056,331 L614,331 Z M620,288 C617.2382813,288 615,290.2382813 615,293 L615,324 C615,326.7617188 617.2382813,329 620,329 L753,329 C755.7617188,329 758,326.7617188 758,324 L758,293 C758,290.2382813 755.7617188,288 753,288 Z M620,288 Z M620,288" /></clipPath>
<path d="M686.6796875,273 L686.6796875,266 L697,266" style="fill:none;stroke:rgb(1,124,152);stroke-width:3" clip-path="url(#clip12)" />
<clipPath id="clip13"><path d="M613,236 L1057,236 L1057,332 L613,332 L613,236 Z" /></clipPath>
<path d="M686.6015625,288 L686.6796875,273" style="fill:none;stroke:rgb(1,124,152);stroke-width:3" clip-path="url(#clip13)" />
<clipPath id="clip14"><path d="M613,286 L761,286 L761,332 L613,332 L613,286 Z" /></clipPath>
<path d="M620,288 C617.2382813,288 615,290.2382813 615,293 L615,324 C615,326.7617188 617.2382813,329 620,329 L753,329 C755.7617188,329 758,326.7617188 758,324 L758,293 C758,290.2382813 755.7617188,288 753,288 Z M620,288" style="fill:rgb(220,230,242);stroke:none" clip-path="url(#clip14)" />
<clipPath id="clip15"><path d="M613,286 L761,286 L761,332 L613,332 L613,286 Z" /></clipPath>
<path d="M620,288 C617.2382813,288 615,290.2382813 615,293 L615,324 C615,326.7617188 617.2382813,329 620,329 L753,329 C755.7617188,329 758,326.7617188 758,324 L758,293 C758,290.2382813 755.7617188,288 753,288 Z M620,288" style="fill:none;stroke:rgb(85,142,213);stroke-width:2" clip-path="url(#clip15)" />
<text x="644" y="312" style="font:13px Open Sans">Prepare files</text>
<clipPath id="clip16"><path d="M627,302 L642,302 L642,317 L627,317 L627,302 Z" /></clipPath>
<path d="M630.4375,303.0222168 C629.0917969,303.0222168 628,304.1140137 628,305.4597168 L628,313.5847168 C628,314.9304199 629.0917969,316.0222168 630.4375,316.0222168 L638.5625,316.0222168 C639.9082031,316.0222168 641,314.9304199 641,313.5847168 L641,305.4597168 C641,304.1140137 639.9082031,303.0222168 638.5625,303.0222168 Z M630.4375,303.0222168" style="fill:rgb(238,67,47);stroke:none" clip-path="url(#clip16)" />
<clipPath id="clip17"><path d="M627,302 L642,302 L642,317 L627,317 L627,302 Z" /></clipPath>
<path d="M630.4375,303.0222168 C629.0917969,303.0222168 628,304.1140137 628,305.4597168 L628,313.5847168 C628,314.9304199 629.0917969,316.0222168 630.4375,316.0222168 L638.5625,316.0222168 C639.9082031,316.0222168 641,314.9304199 641,313.5847168 L641,305.4597168 C641,304.1140137 639.9082031,303.0222168 638.5625,303.0222168 Z M630.4375,303.0222168" style="fill:rgb(239,83,80);stroke:none" clip-path="url(#clip17)" />
<clipPath id="clip18"><path d="M627,302 L642,302 L642,317 L627,317 L627,302 Z" /></clipPath>
<path d="M632.4084473,308.151123 L632.4084473,307.2275391 C632.8369141,307.2084961 633.1384277,307.1799316 633.3098145,307.1418457 C633.5827637,307.081543 633.8049316,306.9609375 633.9763184,306.7800293 C634.09375,306.65625 634.1826172,306.4912109 634.2429199,306.2849121 C634.277832,306.1611328 634.2937012,306.0690918 634.2937012,306.0087891 L635.423584,306.0087891 L635.423584,312.9118652 L634.0334473,312.9118652 L634.0334473,308.151123 Z M632.4084473,308.151123" style="fill:rgb(255,255,255);stroke:none" clip-path="url(#clip18)" />
<clipPath id="clip19"><path d="M681,275 L694,275 L694,288 L681,288 L681,275 Z" /></clipPath>
<path d="M691.5,281 C691.5,278.515625 689.484375,276.5 687,276.5 C684.515625,276.5 682.5,278.515625 682.5,281 C682.5,283.484375 684.515625,285.5 687,285.5 C689.484375,285.5 691.5,283.484375 691.5,281 Z M691.5,281" style="fill:rgb(250,250,250);stroke:none" clip-path="url(#clip19)" />
<clipPath id="clip20"><path d="M681,275 L694,275 L694,288 L681,288 L681,275 Z" /></clipPath>
<path d="M691.5,281 C691.5,278.515625 689.484375,276.5 687,276.5 C684.515625,276.5 682.5,278.515625 682.5,281 C682.5,283.484375 684.515625,285.5 687,285.5 C689.484375,285.5 691.5,283.484375 691.5,281 Z M691.5,281" style="fill:none;stroke:rgb(1,124,152)" clip-path="url(#clip20)" />
<clipPath id="clip21"><path d="M681,275 L694,275 L694,288 L681,288 L681,275 Z" /></clipPath>
<path d="M685,281 L689,281" style="fill:none;stroke:rgb(150,160,200)" clip-path="url(#clip21)" />
<clipPath id="clip22"><path d="M694,236 L1057,236 L1057,269 L694,269 L694,236 Z" /></clipPath>
<path d="M697,266 L1053,266 Z M697,266" style="fill:none;stroke:rgb(85,142,213);stroke-width:3" clip-path="url(#clip22)" />
<text x="708" y="255" style="font:10px Open Sans">Download from http://www.xmind.net/download/linux/</text>
<clipPath id="clip23"><path d="M800,287 L1081,287 L1081,381 L800,381 Z M806,288 C803.2382813,288 801,290.2382813 801,293 L801,324 C801,326.7617188 803.2382813,329 806,329 L894,329 C896.7617188,329 899,326.7617188 899,324 L899,293 C899,290.2382813 896.7617188,288 894,288 Z M806,288 Z M806,288" /></clipPath>
<path d="M850.3515625,344 L850.3515625,379 L861,379" style="fill:none;stroke:rgb(0,178,161);stroke-width:3" clip-path="url(#clip23)" />
<clipPath id="clip24"><path d="M799,286 L1082,286 L1082,382 L799,382 L799,286 Z" /></clipPath>
<path d="M850.203125,329 L850.3515625,344" style="fill:none;stroke:rgb(0,178,161);stroke-width:3" clip-path="url(#clip24)" />
<clipPath id="clip25"><path d="M799,286 L902,286 L902,332 L799,332 L799,286 Z" /></clipPath>
<path d="M806,288 C803.2382813,288 801,290.2382813 801,293 L801,324 C801,326.7617188 803.2382813,329 806,329 L894,329 C896.7617188,329 899,326.7617188 899,324 L899,293 C899,290.2382813 896.7617188,288 894,288 Z M806,288" style="fill:rgb(220,230,242);stroke:none" clip-path="url(#clip25)" />
<clipPath id="clip26"><path d="M799,286 L902,286 L902,332 L799,332 L799,286 Z" /></clipPath>
<path d="M806,288 C803.2382813,288 801,290.2382813 801,293 L801,324 C801,326.7617188 803.2382813,329 806,329 L894,329 C896.7617188,329 899,326.7617188 899,324 L899,293 C899,290.2382813 896.7617188,288 894,288 Z M806,288" style="fill:none;stroke:rgb(85,142,213);stroke-width:2" clip-path="url(#clip26)" />
<text x="830" y="312" style="font:13px Open Sans">Extract</text>
<clipPath id="clip27"><path d="M813,302 L828,302 L828,317 L813,317 L813,302 Z" /></clipPath>
<path d="M816.456543,303.0063477 C815.1108398,303.0063477 814.019043,304.0981445 814.019043,305.4438477 L814.019043,313.5688477 C814.019043,314.9145508 815.1108398,316.0063477 816.456543,316.0063477 L824.581543,316.0063477 C825.9272461,316.0063477 827.019043,314.9145508 827.019043,313.5688477 L827.019043,305.4438477 C827.019043,304.0981445 825.9272461,303.0063477 824.581543,303.0063477 Z M816.456543,303.0063477" style="fill:rgb(255,182,9);stroke:none" clip-path="url(#clip27)" />
<clipPath id="clip28"><path d="M813,302 L828,302 L828,317 L813,317 L813,302 Z" /></clipPath>
<path d="M818.4401855,311.4741211 C818.6337891,311.013916 819.0908203,310.5283203 819.8112793,310.0141602 C820.4365234,309.5666504 820.8395996,309.2460938 821.0236816,309.0524902 C821.3061523,308.7509766 821.4489746,308.4208984 821.4489746,308.0622559 C821.4489746,307.7702637 821.3664551,307.5258789 821.2045898,307.3322754 C821.0427246,307.1386719 820.8110352,307.043457 820.5095215,307.043457 C820.0969238,307.043457 819.817627,307.1958008 819.668457,307.5036621 C819.5827637,307.6813965 819.5319824,307.9638672 819.5161133,308.3510742 L818.1958008,308.3510742 C818.2180176,307.763916 818.3259277,307.2910156 818.5163574,306.9291992 C818.8781738,306.2404785 819.5192871,305.8945313 820.4428711,305.8945313 C821.1728516,305.8945313 821.7536621,306.0976563 822.1853027,306.5007324 C822.6169434,306.9069824 822.8327637,307.4433594 822.8327637,308.1098633 C822.8327637,308.6208496 822.6804199,309.074707 822.3757324,309.4714355 C822.1757813,309.7348633 821.848877,310.0268555 821.3918457,310.3505859 L820.8491211,310.737793 C820.5095215,310.9790039 820.2746582,311.1535645 820.1508789,311.2614746 C820.0239258,311.3693848 819.9191895,311.4931641 819.8334961,311.6359863 L822.8486328,311.6359863 L822.8486328,312.8325195 L818.1196289,312.8325195 C818.1323242,312.3374023 818.2402344,311.8835449 818.4401855,311.4741211 Z M818.4401855,311.4741211" style="fill:rgb(255,255,255);stroke:none" clip-path="url(#clip28)" />
<clipPath id="clip29"><path d="M845,330 L858,330 L858,343 L845,343 L845,330 Z" /></clipPath>
<path d="M855.5,336 C855.5,333.515625 853.484375,331.5 851,331.5 C848.515625,331.5 846.5,333.515625 846.5,336 C846.5,338.484375 848.515625,340.5 851,340.5 C853.484375,340.5 855.5,338.484375 855.5,336 Z M855.5,336" style="fill:rgb(250,250,250);stroke:none" clip-path="url(#clip29)" />
<clipPath id="clip30"><path d="M845,330 L858,330 L858,343 L845,343 L845,330 Z" /></clipPath>
<path d="M855.5,336 C855.5,333.515625 853.484375,331.5 851,331.5 C848.515625,331.5 846.5,333.515625 846.5,336 C846.5,338.484375 848.515625,340.5 851,340.5 C853.484375,340.5 855.5,338.484375 855.5,336 Z M855.5,336" style="fill:none;stroke:rgb(0,178,161)" clip-path="url(#clip30)" />
<clipPath id="clip31"><path d="M845,330 L858,330 L858,343 L845,343 L845,330 Z" /></clipPath>
<path d="M849,336 L853,336" style="fill:none;stroke:rgb(150,160,200)" clip-path="url(#clip31)" />
<clipPath id="clip32"><path d="M858,349 L1082,349 L1082,382 L858,382 L858,349 Z" /></clipPath>
<path d="M861,379 L1078,379 Z M861,379" style="fill:none;stroke:rgb(85,142,213);stroke-width:3" clip-path="url(#clip32)" />
<text x="872" y="367" style="font:10px Open Sans">unzip xmind-8-linux.zip -d xmind</text>
<clipPath id="clip33"><path d="M1066,237 L1306,237 L1306,331 L1066,331 Z M1072,288 C1069.2382813,288 1067,290.2382813 1067,293 L1067,324 C1067,326.7617188 1069.2382813,329 1072,329 L1212,329 C1214.7617188,329 1217,326.7617188 1217,324 L1217,293 C1217,290.2382813 1214.7617188,288 1212,288 Z M1072,288 Z M1072,288" /></clipPath>
<path d="M1142.3554688,273 L1142.3554688,266 L1153,266" style="fill:none;stroke:rgb(255,221,0);stroke-width:3" clip-path="url(#clip33)" />
<clipPath id="clip34"><path d="M1065,236 L1307,236 L1307,332 L1065,332 L1065,236 Z" /></clipPath>
<path d="M1142.2070313,288 L1142.3554688,273" style="fill:none;stroke:rgb(255,221,0);stroke-width:3" clip-path="url(#clip34)" />
<clipPath id="clip35"><path d="M1065,286 L1220,286 L1220,332 L1065,332 L1065,286 Z" /></clipPath>
<path d="M1072,288 C1069.2382813,288 1067,290.2382813 1067,293 L1067,324 C1067,326.7617188 1069.2382813,329 1072,329 L1212,329 C1214.7617188,329 1217,326.7617188 1217,324 L1217,293 C1217,290.2382813 1214.7617188,288 1212,288 Z M1072,288" style="fill:rgb(220,230,242);stroke:none" clip-path="url(#clip35)" />
<clipPath id="clip36"><path d="M1065,286 L1220,286 L1220,332 L1065,332 L1065,286 Z" /></clipPath>
<path d="M1072,288 C1069.2382813,288 1067,290.2382813 1067,293 L1067,324 C1067,326.7617188 1069.2382813,329 1072,329 L1212,329 C1214.7617188,329 1217,326.7617188 1217,324 L1217,293 C1217,290.2382813 1214.7617188,288 1212,288 Z M1072,288" style="fill:none;stroke:rgb(85,142,213);stroke-width:2" clip-path="url(#clip36)" />
<text x="1096" y="312" style="font:13px Open Sans">Move to /opt/</text>
<clipPath id="clip37"><path d="M1079,302 L1094,302 L1094,317 L1079,317 L1079,302 Z" /></clipPath>
<path d="M1082.4406738,303 C1081.0949707,303 1080.0031738,304.0917969 1080.0031738,305.4375 L1080.0031738,313.5625 C1080.0031738,314.9082031 1081.0949707,316 1082.4406738,316 L1090.5656738,316 C1091.911377,316 1093.0031738,314.9082031 1093.0031738,313.5625 L1093.0031738,305.4375 C1093.0031738,304.0917969 1091.911377,303 1090.5656738,303 Z M1082.4406738,303" style="fill:rgb(76,145,255);stroke:none" clip-path="url(#clip37)" />
<clipPath id="clip38"><path d="M1079,302 L1094,302 L1094,317 L1079,317 L1079,302 Z" /></clipPath>
<path d="M1085.7287598,310.7949219 C1085.7287598,311.0710449 1085.7731934,311.2995605 1085.8620605,311.4804688 C1086.0270996,311.8137207 1086.3286133,311.9787598 1086.7634277,311.9787598 C1087.0300293,311.9787598 1087.2617188,311.8867188 1087.4616699,311.7058105 C1087.6584473,311.5217285 1087.7568359,311.2614746 1087.7568359,310.9187012 C1087.7568359,310.4648438 1087.5727539,310.1601563 1087.2045898,310.0078125 C1086.9951172,309.9221191 1086.6650391,309.8808594 1086.2143555,309.8808594 L1086.2143555,308.909668 C1086.6555176,308.9033203 1086.9633789,308.8588867 1087.1379395,308.779541 C1087.4394531,308.6462402 1087.5917969,308.3764648 1087.5917969,307.9702148 C1087.5917969,307.7067871 1087.515625,307.4941406 1087.3601074,307.3291016 C1087.2077637,307.1640625 1086.9887695,307.081543 1086.7094727,307.081543 C1086.388916,307.081543 1086.1540527,307.1831055 1086.0048828,307.3862305 C1085.8525391,307.5893555 1085.779541,307.8591309 1085.7858887,308.1987305 L1084.5195313,308.1987305 C1084.5322266,307.855957 1084.5925293,307.5322266 1084.6972656,307.2243652 C1084.8083496,306.9545898 1084.9829102,306.7038574 1085.2209473,306.4753418 C1085.3986816,306.3134766 1085.6081543,306.1896973 1085.8525391,306.1040039 C1086.0969238,306.0183105 1086.3984375,305.9770508 1086.7539063,305.9770508 C1087.4140625,305.9770508 1087.9472656,306.1452637 1088.3503418,306.4880371 C1088.7565918,306.8276367 1088.956543,307.2878418 1088.956543,307.8623047 C1088.956543,308.2685547 1088.8359375,308.6113281 1088.5947266,308.890625 C1088.4423828,309.0651855 1088.2836914,309.1826172 1088.1186523,309.2460938 C1088.2424316,309.2460938 1088.420166,309.3540039 1088.6518555,309.5666504 C1088.9978027,309.887207 1089.1723633,310.3251953 1089.1723633,310.8806152 C1089.1723633,311.4645996 1088.9692383,311.9755859 1088.5661621,312.4199219 C1088.1599121,312.861084 1087.5600586,313.083252 1086.7666016,313.083252 C1085.7890625,313.083252 1085.1098633,312.7658691 1084.7290039,312.1279297 C1084.5290527,311.7883301 1084.4179688,311.3439941 1084.395752,310.7949219 Z M1085.7287598,310.7949219" style="fill:rgb(255,255,255);stroke:none" clip-path="url(#clip38)" />
<clipPath id="clip39"><path d="M1137,275 L1150,275 L1150,288 L1137,288 L1137,275 Z" /></clipPath>
<path d="M1147.5,281 C1147.5,278.515625 1145.484375,276.5 1143,276.5 C1140.515625,276.5 1138.5,278.515625 1138.5,281 C1138.5,283.484375 1140.515625,285.5 1143,285.5 C1145.484375,285.5 1147.5,283.484375 1147.5,281 Z M1147.5,281" style="fill:rgb(250,250,250);stroke:none" clip-path="url(#clip39)" />
<clipPath id="clip40"><path d="M1137,275 L1150,275 L1150,288 L1137,288 L1137,275 Z" /></clipPath>
<path d="M1147.5,281 C1147.5,278.515625 1145.484375,276.5 1143,276.5 C1140.515625,276.5 1138.5,278.515625 1138.5,281 C1138.5,283.484375 1140.515625,285.5 1143,285.5 C1145.484375,285.5 1147.5,283.484375 1147.5,281 Z M1147.5,281" style="fill:none;stroke:rgb(255,221,0)" clip-path="url(#clip40)" />
<clipPath id="clip41"><path d="M1137,275 L1150,275 L1150,288 L1137,288 L1137,275 Z" /></clipPath>
<path d="M1141,281 L1145,281" style="fill:none;stroke:rgb(150,160,200)" clip-path="url(#clip41)" />
<clipPath id="clip42"><path d="M1150,236 L1307,236 L1307,269 L1150,269 L1150,236 Z" /></clipPath>
<path d="M1153,266 L1303,266 Z M1153,266" style="fill:none;stroke:rgb(85,142,213);stroke-width:3" clip-path="url(#clip42)" />
<text x="1164" y="255" style="font:10px Open Sans">sudo mv xmind /opt/</text>
<clipPath id="clip43"><path d="M1259,287 L2020,287 L2020,381 L1259,381 Z M1265,288 C1262.2382813,288 1260,290.2382813 1260,293 L1260,324 C1260,326.7617188 1262.2382813,329 1265,329 L1450,329 C1452.7617188,329 1455,326.7617188 1455,324 L1455,293 C1455,290.2382813 1452.7617188,288 1450,288 Z M1265,288 Z M1265,288" /></clipPath>
<path d="M1357.6757813,344 L1357.6757813,379 L1368,379" style="fill:none;stroke:rgb(252,143,0);stroke-width:3" clip-path="url(#clip43)" />
<clipPath id="clip44"><path d="M1258,286 L2021,286 L2021,382 L1258,382 L1258,286 Z" /></clipPath>
<path d="M1357.6015625,329 L1357.6757813,344" style="fill:none;stroke:rgb(252,143,0);stroke-width:3" clip-path="url(#clip44)" />
<clipPath id="clip45"><path d="M1258,286 L1458,286 L1458,332 L1258,332 L1258,286 Z" /></clipPath>
<path d="M1265,288 C1262.2382813,288 1260,290.2382813 1260,293 L1260,324 C1260,326.7617188 1262.2382813,329 1265,329 L1450,329 C1452.7617188,329 1455,326.7617188 1455,324 L1455,293 C1455,290.2382813 1452.7617188,288 1450,288 Z M1265,288" style="fill:rgb(220,230,242);stroke:none" clip-path="url(#clip45)" />
<clipPath id="clip46"><path d="M1258,286 L1458,286 L1458,332 L1258,332 L1258,286 Z" /></clipPath>
<path d="M1265,288 C1262.2382813,288 1260,290.2382813 1260,293 L1260,324 C1260,326.7617188 1262.2382813,329 1265,329 L1450,329 C1452.7617188,329 1455,326.7617188 1455,324 L1455,293 C1455,290.2382813 1452.7617188,288 1450,288 Z M1265,288" style="fill:none;stroke:rgb(85,142,213);stroke-width:2" clip-path="url(#clip46)" />
<text x="1289" y="312" style="font:13px Open Sans">Prepare directories</text>
<clipPath id="clip47"><path d="M1272,302 L1287,302 L1287,317 L1272,317 L1272,302 Z" /></clipPath>
<path d="M1275.4406738,303 C1274.0949707,303 1273.0031738,304.0917969 1273.0031738,305.4375 L1273.0031738,313.5625 C1273.0031738,314.9082031 1274.0949707,316 1275.4406738,316 L1283.5656738,316 C1284.911377,316 1286.0031738,314.9082031 1286.0031738,313.5625 L1286.0031738,305.4375 C1286.0031738,304.0917969 1284.911377,303 1283.5656738,303 Z M1275.4406738,303" style="fill:rgb(0,209,86);stroke:none" clip-path="url(#clip47)" />
<clipPath id="clip48"><path d="M1272,302 L1287,302 L1287,317 L1272,317 L1272,302 Z" /></clipPath>
<path d="M1281.8327637,311.4265137 L1281.052002,311.4265137 L1281.052002,312.9118652 L1279.722168,312.9118652 L1279.722168,311.4265137 L1276.989502,311.4265137 L1276.989502,310.2426758 L1279.5285645,306.0532227 L1281.052002,306.0532227 L1281.052002,310.3664551 L1281.8327637,310.3664551 Z M1279.722168,310.3664551 L1279.722168,307.3862305 L1277.9956055,310.3664551 Z M1279.722168,310.3664551" style="fill:rgb(255,255,255);stroke:none" clip-path="url(#clip48)" />
<clipPath id="clip49"><path d="M1352,330 L1365,330 L1365,343 L1352,343 L1352,330 Z" /></clipPath>
<path d="M1362.5,336 C1362.5,333.515625 1360.484375,331.5 1358,331.5 C1355.515625,331.5 1353.5,333.515625 1353.5,336 C1353.5,338.484375 1355.515625,340.5 1358,340.5 C1360.484375,340.5 1362.5,338.484375 1362.5,336 Z M1362.5,336" style="fill:rgb(250,250,250);stroke:none" clip-path="url(#clip49)" />
<clipPath id="clip50"><path d="M1352,330 L1365,330 L1365,343 L1352,343 L1352,330 Z" /></clipPath>
<path d="M1362.5,336 C1362.5,333.515625 1360.484375,331.5 1358,331.5 C1355.515625,331.5 1353.5,333.515625 1353.5,336 C1353.5,338.484375 1355.515625,340.5 1358,340.5 C1360.484375,340.5 1362.5,338.484375 1362.5,336 Z M1362.5,336" style="fill:none;stroke:rgb(252,143,0)" clip-path="url(#clip50)" />
<clipPath id="clip51"><path d="M1352,330 L1365,330 L1365,343 L1352,343 L1352,330 Z" /></clipPath>
<path d="M1356,336 L1360,336" style="fill:none;stroke:rgb(150,160,200)" clip-path="url(#clip51)" />
<clipPath id="clip52"><path d="M1366,350 L2020,350 L2020,381 L1366,381 Z M1368,352 L1368,378 L1619,378 L1619,352 Z M1368,352 Z M1368,352" /></clipPath>
<path d="M1634,379 L1643,379" style="fill:none;stroke:rgb(252,143,0);stroke-width:3" clip-path="url(#clip52)" />
<clipPath id="clip53"><path d="M1365,349 L2021,349 L2021,382 L1365,382 L1365,349 Z" /></clipPath>
<path d="M1619,379 L1634,379" style="fill:none;stroke:rgb(252,143,0);stroke-width:3" clip-path="url(#clip53)" />
<clipPath id="clip54"><path d="M1365,349 L1623,349 L1623,382 L1365,382 L1365,349 Z" /></clipPath>
<path d="M1368,379 L1619,379 Z M1368,379" style="fill:none;stroke:rgb(85,142,213);stroke-width:3" clip-path="url(#clip54)" />
<text x="1379" y="367" style="font:10px Open Sans">Allow writes to configuration directory</text>
<clipPath id="clip55"><path d="M1621,359 L1634,359 L1634,372 L1621,372 L1621,359 Z" /></clipPath>
<path d="M1631.5,365 C1631.5,362.515625 1629.484375,360.5 1627,360.5 C1624.515625,360.5 1622.5,362.515625 1622.5,365 C1622.5,367.484375 1624.515625,369.5 1627,369.5 C1629.484375,369.5 1631.5,367.484375 1631.5,365 Z M1631.5,365" style="fill:rgb(250,250,250);stroke:none" clip-path="url(#clip55)" />
<clipPath id="clip56"><path d="M1621,359 L1634,359 L1634,372 L1621,372 L1621,359 Z" /></clipPath>
<path d="M1631.5,365 C1631.5,362.515625 1629.484375,360.5 1627,360.5 C1624.515625,360.5 1622.5,362.515625 1622.5,365 C1622.5,367.484375 1624.515625,369.5 1627,369.5 C1629.484375,369.5 1631.5,367.484375 1631.5,365 Z M1631.5,365" style="fill:none;stroke:rgb(252,143,0)" clip-path="url(#clip56)" />
<clipPath id="clip57"><path d="M1621,359 L1634,359 L1634,372 L1621,372 L1621,359 Z" /></clipPath>
<path d="M1625,365 L1629,365" style="fill:none;stroke:rgb(150,160,200)" clip-path="url(#clip57)" />
<clipPath id="clip58"><path d="M1640,349 L2021,349 L2021,382 L1640,382 L1640,349 Z" /></clipPath>
<path d="M1643,379 L2017,379 Z M1643,379" style="fill:none;stroke:rgb(85,142,213);stroke-width:3" clip-path="url(#clip58)" />
<text x="1654" y="367" style="font:10px Open Sans">sudo chmod a+w /opt/xmind/XMind_amd64/configuration</text>
<clipPath id="clip59"><path d="M1497,173 L2280,173 L2280,331 L1497,331 Z M1503,288 C1500.2382813,288 1498,290.2382813 1498,293 L1498,324 C1498,326.7617188 1500.2382813,329 1503,329 L1988,329 C1990.7617188,329 1993,326.7617188 1993,324 L1993,293 C1993,290.2382813 1990.7617188,288 1988,288 Z M1503,288 Z M1503,288" /></clipPath>
<path d="M1745.6796875,273 L1745.6796875,202 L1756,202" style="fill:none;stroke:rgb(255,21,0);stroke-width:3" clip-path="url(#clip59)" />
<clipPath id="clip60"><path d="M1497,173 L2280,173 L2280,331 L1497,331 Z M1503,288 C1500.2382813,288 1498,290.2382813 1498,293 L1498,324 C1498,326.7617188 1500.2382813,329 1503,329 L1988,329 C1990.7617188,329 1993,326.7617188 1993,324 L1993,293 C1993,290.2382813 1990.7617188,288 1988,288 Z M1503,288 Z M1503,288" /></clipPath>
<path d="M1745.6796875,273 L1745.6796875,234 L1756,234" style="fill:none;stroke:rgb(255,21,0);stroke-width:3" clip-path="url(#clip60)" />
<clipPath id="clip61"><path d="M1497,173 L2280,173 L2280,331 L1497,331 Z M1503,288 C1500.2382813,288 1498,290.2382813 1498,293 L1498,324 C1498,326.7617188 1500.2382813,329 1503,329 L1988,329 C1990.7617188,329 1993,326.7617188 1993,324 L1993,293 C1993,290.2382813 1990.7617188,288 1988,288 Z M1503,288 Z M1503,288" /></clipPath>
<path d="M1745.6796875,273 L1745.6796875,266 L1756,266" style="fill:none;stroke:rgb(255,21,0);stroke-width:3" clip-path="url(#clip61)" />
<clipPath id="clip62"><path d="M1496,172 L2281,172 L2281,332 L1496,332 L1496,172 Z" /></clipPath>
<path d="M1745.6015625,288 L1745.6796875,273" style="fill:none;stroke:rgb(255,21,0);stroke-width:3" clip-path="url(#clip62)" />
<clipPath id="clip63"><path d="M1496,286 L1996,286 L1996,332 L1496,332 L1496,286 Z" /></clipPath>
<path d="M1503,288 C1500.2382813,288 1498,290.2382813 1498,293 L1498,324 C1498,326.7617188 1500.2382813,329 1503,329 L1988,329 C1990.7617188,329 1993,326.7617188 1993,324 L1993,293 C1993,290.2382813 1990.7617188,288 1988,288 Z M1503,288" style="fill:rgb(220,230,242);stroke:none" clip-path="url(#clip63)" />
<clipPath id="clip64"><path d="M1496,286 L1996,286 L1996,332 L1496,332 L1496,286 Z" /></clipPath>
<path d="M1503,288 C1500.2382813,288 1498,290.2382813 1498,293 L1498,324 C1498,326.7617188 1500.2382813,329 1503,329 L1988,329 C1990.7617188,329 1993,326.7617188 1993,324 L1993,293 C1993,290.2382813 1990.7617188,288 1988,288 Z M1503,288" style="fill:none;stroke:rgb(85,142,213);stroke-width:2" clip-path="url(#clip64)" />
<text x="1527" y="312" style="font:13px Open Sans">Edit configuration file /opt/xmind/XMind_amd64/XMind.ini</text>
<clipPath id="clip65"><path d="M1510,302 L1525,302 L1525,317 L1510,317 L1510,302 Z" /></clipPath>
<path d="M1513.4406738,303 C1512.0949707,303 1511.0031738,304.0917969 1511.0031738,305.4375 L1511.0031738,313.5625 C1511.0031738,314.9082031 1512.0949707,316 1513.4406738,316 L1521.5656738,316 C1522.911377,316 1524.0031738,314.9082031 1524.0031738,313.5625 L1524.0031738,305.4375 C1524.0031738,304.0917969 1522.911377,303 1521.5656738,303 Z M1513.4406738,303" style="fill:rgb(139,186,193);stroke:none" clip-path="url(#clip65)" />
<clipPath id="clip66"><path d="M1510,302 L1525,302 L1525,317 L1510,317 L1510,302 Z" /></clipPath>
<path d="M1516.5065918,311.0646973 C1516.5605469,311.3598633 1516.6621094,311.5883789 1516.8144531,311.7470703 C1516.9667969,311.9089355 1517.1889648,311.9882813 1517.480957,311.9882813 C1517.8173828,311.9882813 1518.0744629,311.8708496 1518.2490234,311.6328125 C1518.4267578,311.3979492 1518.515625,311.0996094 1518.515625,310.7409668 C1518.515625,310.3886719 1518.4331055,310.090332 1518.2680664,309.8491211 C1518.1030273,309.6047363 1517.8459473,309.4841309 1517.4968262,309.4841309 C1517.3317871,309.4841309 1517.1889648,309.5063477 1517.0683594,309.5476074 C1516.8557129,309.6237793 1516.6938477,309.7634277 1516.5859375,309.9697266 L1515.3671875,309.9125977 L1515.8527832,306.1008301 L1519.6582031,306.1008301 L1519.6582031,307.2529297 L1516.8334961,307.2529297 L1516.5859375,308.760498 C1516.7954102,308.6240234 1516.9604492,308.5351563 1517.0778809,308.4907227 C1517.2746582,308.4177246 1517.5126953,308.3796387 1517.795166,308.3796387 C1518.3664551,308.3796387 1518.8647461,308.5732422 1519.2900391,308.9572754 C1519.715332,309.3413086 1519.9279785,309.8999023 1519.9279785,310.6330566 C1519.9279785,311.2709961 1519.7248535,311.8391113 1519.3154297,312.3405762 C1518.9060059,312.842041 1518.293457,313.0927734 1517.4777832,313.0927734 C1516.8208008,313.0927734 1516.28125,312.9182129 1515.8591309,312.565918 C1515.4370117,312.213623 1515.2021484,311.7121582 1515.154541,311.0646973 Z M1516.5065918,311.0646973" style="fill:rgb(255,255,255);stroke:none" clip-path="url(#clip66)" />
<clipPath id="clip67"><path d="M1740,275 L1753,275 L1753,288 L1740,288 L1740,275 Z" /></clipPath>
<path d="M1750.5,281 C1750.5,278.515625 1748.484375,276.5 1746,276.5 C1743.515625,276.5 1741.5,278.515625 1741.5,281 C1741.5,283.484375 1743.515625,285.5 1746,285.5 C1748.484375,285.5 1750.5,283.484375 1750.5,281 Z M1750.5,281" style="fill:rgb(250,250,250);stroke:none" clip-path="url(#clip67)" />
<clipPath id="clip68"><path d="M1740,275 L1753,275 L1753,288 L1740,288 L1740,275 Z" /></clipPath>
<path d="M1750.5,281 C1750.5,278.515625 1748.484375,276.5 1746,276.5 C1743.515625,276.5 1741.5,278.515625 1741.5,281 C1741.5,283.484375 1743.515625,285.5 1746,285.5 C1748.484375,285.5 1750.5,283.484375 1750.5,281 Z M1750.5,281" style="fill:none;stroke:rgb(255,21,0)" clip-path="url(#clip68)" />
<clipPath id="clip69"><path d="M1740,275 L1753,275 L1753,288 L1740,288 L1740,275 Z" /></clipPath>
<path d="M1744,281 L1748,281" style="fill:none;stroke:rgb(150,160,200)" clip-path="url(#clip69)" />
<clipPath id="clip70"><path d="M1754,173 L2280,173 L2280,204 L1754,204 Z M1756,175 L1756,201 L1952,201 L1952,175 Z M1756,175 Z M1756,175" /></clipPath>
<path d="M1967,202 C1969.265625,202 1980.6015625,202 2001,202" style="fill:none;stroke:rgb(255,21,0);stroke-width:3" clip-path="url(#clip70)" />
<clipPath id="clip71"><path d="M1753,172 L2281,172 L2281,205 L1753,205 L1753,172 Z" /></clipPath>
<path d="M2008,202 L2001,198 L2001,206" style="fill:rgb(255,21,0);stroke:none" clip-path="url(#clip71)" />
<clipPath id="clip72"><path d="M1753,172 L2281,172 L2281,205 L1753,205 L1753,172 Z" /></clipPath>
<path d="M1952,202 L1967,202" style="fill:none;stroke:rgb(255,21,0);stroke-width:3" clip-path="url(#clip72)" />
<clipPath id="clip73"><path d="M1753,172 L1956,172 L1956,205 L1753,205 L1753,172 Z" /></clipPath>
<path d="M1756,202 L1952,202 Z M1756,202" style="fill:none;stroke:rgb(85,142,213);stroke-width:3" clip-path="url(#clip73)" />
<text x="1767" y="191" style="font:10px Open Sans">Line2 change: ./configuration</text>
<clipPath id="clip74"><path d="M1954,182 L1967,182 L1967,195 L1954,195 L1954,182 Z" /></clipPath>
<path d="M1964.5,188 C1964.5,185.515625 1962.484375,183.5 1960,183.5 C1957.515625,183.5 1955.5,185.515625 1955.5,188 C1955.5,190.484375 1957.515625,192.5 1960,192.5 C1962.484375,192.5 1964.5,190.484375 1964.5,188 Z M1964.5,188" style="fill:rgb(250,250,250);stroke:none" clip-path="url(#clip74)" />
<clipPath id="clip75"><path d="M1954,182 L1967,182 L1967,195 L1954,195 L1954,182 Z" /></clipPath>
<path d="M1964.5,188 C1964.5,185.515625 1962.484375,183.5 1960,183.5 C1957.515625,183.5 1955.5,185.515625 1955.5,188 C1955.5,190.484375 1957.515625,192.5 1960,192.5 C1962.484375,192.5 1964.5,190.484375 1964.5,188 Z M1964.5,188" style="fill:none;stroke:rgb(255,21,0)" clip-path="url(#clip75)" />
<clipPath id="clip76"><path d="M1954,182 L1967,182 L1967,195 L1954,195 L1954,182 Z" /></clipPath>
<path d="M1958,188 L1962,188" style="fill:none;stroke:rgb(150,160,200)" clip-path="url(#clip76)" />
<clipPath id="clip77"><path d="M2005,172 L2281,172 L2281,205 L2005,205 L2005,172 Z" /></clipPath>
<path d="M2008,202 L2277,202 Z M2008,202" style="fill:none;stroke:rgb(85,142,213);stroke-width:3" clip-path="url(#clip77)" />
<text x="2019" y="191" style="font:10px Open Sans">/opt/xmind/Xmind_amd64/configuration</text>
<clipPath id="clip78"><path d="M1754,205 L2205,205 L2205,236 L1754,236 Z M1756,207 L1756,233 L1941,233 L1941,207 Z M1756,207 Z M1756,207" /></clipPath>
<path d="M1956,234 C1958.265625,234 1969.6015625,234 1990,234" style="fill:none;stroke:rgb(255,21,0);stroke-width:3" clip-path="url(#clip78)" />
<clipPath id="clip79"><path d="M1753,204 L2206,204 L2206,237 L1753,237 L1753,204 Z" /></clipPath>
<path d="M1997,234 L1990,230 L1990,238" style="fill:rgb(255,21,0);stroke:none" clip-path="url(#clip79)" />
<clipPath id="clip80"><path d="M1753,204 L2206,204 L2206,237 L1753,237 L1753,204 Z" /></clipPath>
<path d="M1941,234 L1956,234" style="fill:none;stroke:rgb(255,21,0);stroke-width:3" clip-path="url(#clip80)" />
<clipPath id="clip81"><path d="M1753,204 L1945,204 L1945,237 L1753,237 L1753,204 Z" /></clipPath>
<path d="M1756,234 L1941,234 Z M1756,234" style="fill:none;stroke:rgb(85,142,213);stroke-width:3" clip-path="url(#clip81)" />
<text x="1767" y="223" style="font:10px Open Sans">Line 4 change: ../workspace</text>
<clipPath id="clip82"><path d="M1943,214 L1956,214 L1956,227 L1943,227 L1943,214 Z" /></clipPath>
<path d="M1953.5,220 C1953.5,217.515625 1951.484375,215.5 1949,215.5 C1946.515625,215.5 1944.5,217.515625 1944.5,220 C1944.5,222.484375 1946.515625,224.5 1949,224.5 C1951.484375,224.5 1953.5,222.484375 1953.5,220 Z M1953.5,220" style="fill:rgb(250,250,250);stroke:none" clip-path="url(#clip82)" />
<clipPath id="clip83"><path d="M1943,214 L1956,214 L1956,227 L1943,227 L1943,214 Z" /></clipPath>
<path d="M1953.5,220 C1953.5,217.515625 1951.484375,215.5 1949,215.5 C1946.515625,215.5 1944.5,217.515625 1944.5,220 C1944.5,222.484375 1946.515625,224.5 1949,224.5 C1951.484375,224.5 1953.5,222.484375 1953.5,220 Z M1953.5,220" style="fill:none;stroke:rgb(255,21,0)" clip-path="url(#clip83)" />
<clipPath id="clip84"><path d="M1943,214 L1956,214 L1956,227 L1943,227 L1943,214 Z" /></clipPath>
<path d="M1947,220 L1951,220" style="fill:none;stroke:rgb(150,160,200)" clip-path="url(#clip84)" />
<clipPath id="clip85"><path d="M1994,204 L2206,204 L2206,237 L1994,237 L1994,204 Z" /></clipPath>
<path d="M1997,234 L2202,234 Z M1997,234" style="fill:none;stroke:rgb(85,142,213);stroke-width:3" clip-path="url(#clip85)" />
<text x="2008" y="223" style="font:10px Open Sans">/home/USERNAME/workspace</text>
<clipPath id="clip86"><path d="M1754,237 L2078,237 L2078,268 L1754,268 Z M1756,239 L1756,265 L1942,265 L1942,239 Z M1756,239 Z M1756,239" /></clipPath>
<path d="M1957,266 C1959.265625,266 1970.6015625,266 1991,266" style="fill:none;stroke:rgb(255,21,0);stroke-width:3" clip-path="url(#clip86)" />
<clipPath id="clip87"><path d="M1753,236 L2079,236 L2079,269 L1753,269 L1753,236 Z" /></clipPath>
<path d="M1998,266 L1991,262 L1991,270" style="fill:rgb(255,21,0);stroke:none" clip-path="url(#clip87)" />
<clipPath id="clip88"><path d="M1753,236 L2079,236 L2079,269 L1753,269 L1753,236 Z" /></clipPath>
<path d="M1942,266 L1957,266" style="fill:none;stroke:rgb(255,21,0);stroke-width:3" clip-path="url(#clip88)" />
<clipPath id="clip89"><path d="M1753,236 L1946,236 L1946,269 L1753,269 L1753,236 Z" /></clipPath>
<path d="M1756,266 L1942,266 Z M1756,266" style="fill:none;stroke:rgb(85,142,213);stroke-width:3" clip-path="url(#clip89)" />
<text x="1767" y="255" style="font:10px Open Sans">Line 6 &amp; 8 change: ../plugins</text>
<clipPath id="clip90"><path d="M1944,246 L1957,246 L1957,259 L1944,259 L1944,246 Z" /></clipPath>
<path d="M1954.5,252 C1954.5,249.515625 1952.484375,247.5 1950,247.5 C1947.515625,247.5 1945.5,249.515625 1945.5,252 C1945.5,254.484375 1947.515625,256.5 1950,256.5 C1952.484375,256.5 1954.5,254.484375 1954.5,252 Z M1954.5,252" style="fill:rgb(250,250,250);stroke:none" clip-path="url(#clip90)" />
<clipPath id="clip91"><path d="M1944,246 L1957,246 L1957,259 L1944,259 L1944,246 Z" /></clipPath>
<path d="M1954.5,252 C1954.5,249.515625 1952.484375,247.5 1950,247.5 C1947.515625,247.5 1945.5,249.515625 1945.5,252 C1945.5,254.484375 1947.515625,256.5 1950,256.5 C1952.484375,256.5 1954.5,254.484375 1954.5,252 Z M1954.5,252" style="fill:none;stroke:rgb(255,21,0)" clip-path="url(#clip91)" />
<clipPath id="clip92"><path d="M1944,246 L1957,246 L1957,259 L1944,259 L1944,246 Z" /></clipPath>
<path d="M1948,252 L1952,252" style="fill:none;stroke:rgb(150,160,200)" clip-path="url(#clip92)" />
<clipPath id="clip93"><path d="M1995,236 L2079,236 L2079,269 L1995,269 L1995,236 Z" /></clipPath>
<path d="M1998,266 L2075,266 Z M1998,266" style="fill:none;stroke:rgb(85,142,213);stroke-width:3" clip-path="url(#clip93)" />
<text x="2009" y="255" style="font:10px Open Sans">../plugins</text>
<clipPath id="clip94"><path d="M2035,287 L2648,287 L2648,445 L2035,445 Z M2041,288 C2038.2382813,288 2036,290.2382813 2036,293 L2036,324 C2036,326.7617188 2038.2382813,329 2041,329 L2182,329 C2184.7617188,329 2187,326.7617188 2187,324 L2187,293 C2187,290.2382813 2184.7617188,288 2182,288 Z M2041,288 Z M2041,288" /></clipPath>
<path d="M2111.6757813,344 L2111.6757813,379 L2122,379" style="fill:none;stroke:rgb(0,176,76);stroke-width:3" clip-path="url(#clip94)" />
<clipPath id="clip95"><path d="M2035,287 L2648,287 L2648,445 L2035,445 Z M2041,288 C2038.2382813,288 2036,290.2382813 2036,293 L2036,324 C2036,326.7617188 2038.2382813,329 2041,329 L2182,329 C2184.7617188,329 2187,326.7617188 2187,324 L2187,293 C2187,290.2382813 2184.7617188,288 2182,288 Z M2041,288 Z M2041,288" /></clipPath>
<path d="M2111.6757813,344 L2111.6757813,411 L2122,411" style="fill:none;stroke:rgb(0,176,76);stroke-width:3" clip-path="url(#clip95)" />
<clipPath id="clip96"><path d="M2035,287 L2648,287 L2648,445 L2035,445 Z M2041,288 C2038.2382813,288 2036,290.2382813 2036,293 L2036,324 C2036,326.7617188 2038.2382813,329 2041,329 L2182,329 C2184.7617188,329 2187,326.7617188 2187,324 L2187,293 C2187,290.2382813 2184.7617188,288 2182,288 Z M2041,288 Z M2041,288" /></clipPath>
<path d="M2111.6757813,344 L2111.6757813,443 L2122,443" style="fill:none;stroke:rgb(0,176,76);stroke-width:3" clip-path="url(#clip96)" />
<clipPath id="clip97"><path d="M2034,286 L2649,286 L2649,446 L2034,446 L2034,286 Z" /></clipPath>
<path d="M2111.6015625,329 L2111.6757813,344" style="fill:none;stroke:rgb(0,176,76);stroke-width:3" clip-path="url(#clip97)" />
<clipPath id="clip98"><path d="M2034,286 L2190,286 L2190,332 L2034,332 L2034,286 Z" /></clipPath>
<path d="M2041,288 C2038.2382813,288 2036,290.2382813 2036,293 L2036,324 C2036,326.7617188 2038.2382813,329 2041,329 L2182,329 C2184.7617188,329 2187,326.7617188 2187,324 L2187,293 C2187,290.2382813 2184.7617188,288 2182,288 Z M2041,288" style="fill:rgb(220,230,242);stroke:none" clip-path="url(#clip98)" />
<clipPath id="clip99"><path d="M2034,286 L2190,286 L2190,332 L2034,332 L2034,286 Z" /></clipPath>
<path d="M2041,288 C2038.2382813,288 2036,290.2382813 2036,293 L2036,324 C2036,326.7617188 2038.2382813,329 2041,329 L2182,329 C2184.7617188,329 2187,326.7617188 2187,324 L2187,293 C2187,290.2382813 2184.7617188,288 2182,288 Z M2041,288" style="fill:none;stroke:rgb(85,142,213);stroke-width:2" clip-path="url(#clip99)" />
<text x="2065" y="312" style="font:13px Open Sans">Prepare fonts</text>
<clipPath id="clip100"><path d="M2048,302 L2063,302 L2063,317 L2048,317 L2048,302 Z" /></clipPath>
<path d="M2051.4628906,303.019043 C2050.1140137,303.019043 2049.0253906,304.107666 2049.0253906,305.456543 L2049.0253906,313.581543 C2049.0253906,314.9272461 2050.1140137,316.019043 2051.4628906,316.019043 L2059.5878906,316.019043 C2060.9335938,316.019043 2062.0253906,314.9272461 2062.0253906,313.581543 L2062.0253906,305.456543 C2062.0253906,304.107666 2060.9335938,303.019043 2059.5878906,303.019043 Z M2051.4628906,303.019043" style="fill:rgb(139,186,193);stroke:none" clip-path="url(#clip100)" />
<clipPath id="clip101"><path d="M2048,302 L2063,302 L2063,317 L2048,317 L2048,302 Z" /></clipPath>
<path d="M2054.8620605,311.6359863 C2055.0620117,311.8708496 2055.315918,311.9882813 2055.6237793,311.9882813 C2055.925293,311.9882813 2056.1633301,311.8740234 2056.3347168,311.6486816 C2056.5092773,311.420166 2056.5949707,311.1281738 2056.5949707,310.7663574 C2056.5949707,310.3632813 2056.496582,310.0522461 2056.2998047,309.8395996 C2056.1030273,309.6237793 2055.8618164,309.519043 2055.5761719,309.519043 C2055.3444824,309.519043 2055.1413574,309.5888672 2054.963623,309.7285156 C2054.6970215,309.9348145 2054.5637207,310.2680664 2054.5637207,310.7282715 C2054.5637207,311.0996094 2054.6621094,311.401123 2054.8620605,311.6359863 Z M2056.4711914,307.7480469 C2056.4711914,307.6369629 2056.4299316,307.5131836 2056.3442383,307.3798828 C2056.1982422,307.1640625 2055.9760742,307.0561523 2055.6809082,307.0561523 C2055.2397461,307.0561523 2054.9255371,307.3037109 2054.7382813,307.7988281 C2054.6367188,308.0717773 2054.5668945,308.4748535 2054.5288086,309.0080566 C2054.6970215,308.8081055 2054.8937988,308.6621094 2055.1159668,308.5700684 C2055.3381348,308.4780273 2055.592041,308.4335938 2055.8776855,308.4335938 C2056.4902344,308.4335938 2056.9916992,308.6398926 2057.3820801,309.0556641 C2057.7756348,309.4714355 2057.9724121,310.0046387 2057.9724121,310.6520996 C2057.9724121,311.2963867 2057.7788086,311.864502 2057.3947754,312.3564453 C2057.0107422,312.8483887 2056.4140625,313.0927734 2055.6047363,313.0927734 C2054.7351074,313.0927734 2054.0939941,312.730957 2053.6813965,312.0041504 C2053.3608398,311.4360352 2053.2021484,310.7028809 2053.2021484,309.8046875 C2053.2021484,309.277832 2053.2243652,308.8493652 2053.2687988,308.5192871 C2053.3481445,307.9321289 2053.5004883,307.4433594 2053.7290039,307.0529785 C2053.9257813,306.7197266 2054.1828613,306.4499512 2054.503418,306.2468262 C2054.8208008,306.0437012 2055.204834,305.9421387 2055.6491699,305.9421387 C2056.2902832,305.9421387 2056.8012695,306.1071777 2057.1821289,306.434082 C2057.5629883,306.7641602 2057.7756348,307.2021484 2057.8232422,307.7480469 Z M2056.4711914,307.7480469" style="fill:rgb(255,255,255);stroke:none" clip-path="url(#clip101)" />
<clipPath id="clip102"><path d="M2106,330 L2119,330 L2119,343 L2106,343 L2106,330 Z" /></clipPath>
<path d="M2116.5,336 C2116.5,333.515625 2114.484375,331.5 2112,331.5 C2109.515625,331.5 2107.5,333.515625 2107.5,336 C2107.5,338.484375 2109.515625,340.5 2112,340.5 C2114.484375,340.5 2116.5,338.484375 2116.5,336 Z M2116.5,336" style="fill:rgb(250,250,250);stroke:none" clip-path="url(#clip102)" />
<clipPath id="clip103"><path d="M2106,330 L2119,330 L2119,343 L2106,343 L2106,330 Z" /></clipPath>
<path d="M2116.5,336 C2116.5,333.515625 2114.484375,331.5 2112,331.5 C2109.515625,331.5 2107.5,333.515625 2107.5,336 C2107.5,338.484375 2109.515625,340.5 2112,340.5 C2114.484375,340.5 2116.5,338.484375 2116.5,336 Z M2116.5,336" style="fill:none;stroke:rgb(0,176,76)" clip-path="url(#clip103)" />
<clipPath id="clip104"><path d="M2106,330 L2119,330 L2119,343 L2106,343 L2106,330 Z" /></clipPath>
<path d="M2110,336 L2114,336" style="fill:none;stroke:rgb(150,160,200)" clip-path="url(#clip104)" />
<clipPath id="clip105"><path d="M2120,350 L2609,350 L2609,381 L2120,381 Z M2122,352 L2122,378 L2275,378 L2275,352 Z M2122,352 Z M2122,352" /></clipPath>
<path d="M2290,379 L2299,379" style="fill:none;stroke:rgb(0,176,76);stroke-width:3" clip-path="url(#clip105)" />
<clipPath id="clip106"><path d="M2119,349 L2610,349 L2610,382 L2119,382 L2119,349 Z" /></clipPath>
<path d="M2275,379 L2290,379" style="fill:none;stroke:rgb(0,176,76);stroke-width:3" clip-path="url(#clip106)" />
<clipPath id="clip107"><path d="M2119,349 L2279,349 L2279,382 L2119,382 L2119,349 Z" /></clipPath>
<path d="M2122,379 L2275,379 Z M2122,379" style="fill:none;stroke:rgb(85,142,213);stroke-width:3" clip-path="url(#clip107)" />
<text x="2133" y="367" style="font:10px Open Sans">Create fonts directory</text>
<clipPath id="clip108"><path d="M2277,359 L2290,359 L2290,372 L2277,372 L2277,359 Z" /></clipPath>
<path d="M2287.5,365 C2287.5,362.515625 2285.484375,360.5 2283,360.5 C2280.515625,360.5 2278.5,362.515625 2278.5,365 C2278.5,367.484375 2280.515625,369.5 2283,369.5 C2285.484375,369.5 2287.5,367.484375 2287.5,365 Z M2287.5,365" style="fill:rgb(250,250,250);stroke:none" clip-path="url(#clip108)" />
<clipPath id="clip109"><path d="M2277,359 L2290,359 L2290,372 L2277,372 L2277,359 Z" /></clipPath>
<path d="M2287.5,365 C2287.5,362.515625 2285.484375,360.5 2283,360.5 C2280.515625,360.5 2278.5,362.515625 2278.5,365 C2278.5,367.484375 2280.515625,369.5 2283,369.5 C2285.484375,369.5 2287.5,367.484375 2287.5,365 Z M2287.5,365" style="fill:none;stroke:rgb(0,176,76)" clip-path="url(#clip109)" />
<clipPath id="clip110"><path d="M2277,359 L2290,359 L2290,372 L2277,372 L2277,359 Z" /></clipPath>
<path d="M2281,365 L2285,365" style="fill:none;stroke:rgb(150,160,200)" clip-path="url(#clip110)" />
<clipPath id="clip111"><path d="M2296,349 L2610,349 L2610,382 L2296,382 L2296,349 Z" /></clipPath>
<path d="M2299,379 L2606,379 Z M2299,379" style="fill:none;stroke:rgb(85,142,213);stroke-width:3" clip-path="url(#clip111)" />
<text x="2310" y="367" style="font:10px Open Sans">sudo mkdir -p /usr/share/fonts/truetype/xmind</text>
<clipPath id="clip112"><path d="M2120,382 L2648,382 L2648,413 L2120,413 Z M2122,384 L2122,410 L2210,410 L2210,384 Z M2122,384 Z M2122,384" /></clipPath>
<path d="M2225,411 L2234,411" style="fill:none;stroke:rgb(0,176,76);stroke-width:3" clip-path="url(#clip112)" />
<clipPath id="clip113"><path d="M2119,381 L2649,381 L2649,414 L2119,414 L2119,381 Z" /></clipPath>
<path d="M2210,411 L2225,411" style="fill:none;stroke:rgb(0,176,76);stroke-width:3" clip-path="url(#clip113)" />
<clipPath id="clip114"><path d="M2119,381 L2214,381 L2214,414 L2119,414 L2119,381 Z" /></clipPath>
<path d="M2122,411 L2210,411 Z M2122,411" style="fill:none;stroke:rgb(85,142,213);stroke-width:3" clip-path="url(#clip114)" />
<text x="2133" y="399" style="font:10px Open Sans">Copy fonts</text>
<clipPath id="clip115"><path d="M2212,391 L2225,391 L2225,404 L2212,404 L2212,391 Z" /></clipPath>
<path d="M2222.5,397 C2222.5,394.515625 2220.484375,392.5 2218,392.5 C2215.515625,392.5 2213.5,394.515625 2213.5,397 C2213.5,399.484375 2215.515625,401.5 2218,401.5 C2220.484375,401.5 2222.5,399.484375 2222.5,397 Z M2222.5,397" style="fill:rgb(250,250,250);stroke:none" clip-path="url(#clip115)" />
<clipPath id="clip116"><path d="M2212,391 L2225,391 L2225,404 L2212,404 L2212,391 Z" /></clipPath>
<path d="M2222.5,397 C2222.5,394.515625 2220.484375,392.5 2218,392.5 C2215.515625,392.5 2213.5,394.515625 2213.5,397 C2213.5,399.484375 2215.515625,401.5 2218,401.5 C2220.484375,401.5 2222.5,399.484375 2222.5,397 Z M2222.5,397" style="fill:none;stroke:rgb(0,176,76)" clip-path="url(#clip116)" />
<clipPath id="clip117"><path d="M2212,391 L2225,391 L2225,404 L2212,404 L2212,391 Z" /></clipPath>
<path d="M2216,397 L2220,397" style="fill:none;stroke:rgb(150,160,200)" clip-path="url(#clip117)" />
<clipPath id="clip118"><path d="M2231,381 L2649,381 L2649,414 L2231,414 L2231,381 Z" /></clipPath>
<path d="M2234,411 L2645,411 Z M2234,411" style="fill:none;stroke:rgb(85,142,213);stroke-width:3" clip-path="url(#clip118)" />
<text x="2245" y="399" style="font:10px Open Sans">sudo cp -R /opt/xmind/fonts/* /usr/share/fonts/truetype/xmind/</text>
<clipPath id="clip119"><path d="M2120,414 L2397,414 L2397,445 L2120,445 Z M2122,416 L2122,442 L2255,442 L2255,416 Z M2122,416 Z M2122,416" /></clipPath>
<path d="M2270,443 L2279,443" style="fill:none;stroke:rgb(0,176,76);stroke-width:3" clip-path="url(#clip119)" />
<clipPath id="clip120"><path d="M2119,413 L2398,413 L2398,446 L2119,446 L2119,413 Z" /></clipPath>
<path d="M2255,443 L2270,443" style="fill:none;stroke:rgb(0,176,76);stroke-width:3" clip-path="url(#clip120)" />
<clipPath id="clip121"><path d="M2119,413 L2259,413 L2259,446 L2119,446 L2119,413 Z" /></clipPath>
<path d="M2122,443 L2255,443 Z M2122,443" style="fill:none;stroke:rgb(85,142,213);stroke-width:3" clip-path="url(#clip121)" />
<text x="2133" y="431" style="font:10px Open Sans">Refresh font cache</text>
<clipPath id="clip122"><path d="M2257,423 L2270,423 L2270,436 L2257,436 L2257,423 Z" /></clipPath>
<path d="M2267.5,429 C2267.5,426.515625 2265.484375,424.5 2263,424.5 C2260.515625,424.5 2258.5,426.515625 2258.5,429 C2258.5,431.484375 2260.515625,433.5 2263,433.5 C2265.484375,433.5 2267.5,431.484375 2267.5,429 Z M2267.5,429" style="fill:rgb(250,250,250);stroke:none" clip-path="url(#clip122)" />
<clipPath id="clip123"><path d="M2257,423 L2270,423 L2270,436 L2257,436 L2257,423 Z" /></clipPath>
<path d="M2267.5,429 C2267.5,426.515625 2265.484375,424.5 2263,424.5 C2260.515625,424.5 2258.5,426.515625 2258.5,429 C2258.5,431.484375 2260.515625,433.5 2263,433.5 C2265.484375,433.5 2267.5,431.484375 2267.5,429 Z M2267.5,429" style="fill:none;stroke:rgb(0,176,76)" clip-path="url(#clip123)" />
<clipPath id="clip124"><path d="M2257,423 L2270,423 L2270,436 L2257,436 L2257,423 Z" /></clipPath>
<path d="M2261,429 L2265,429" style="fill:none;stroke:rgb(150,160,200)" clip-path="url(#clip124)" />
<clipPath id="clip125"><path d="M2276,413 L2398,413 L2398,446 L2276,446 L2276,413 Z" /></clipPath>
<path d="M2279,443 L2394,443 Z M2279,443" style="fill:none;stroke:rgb(85,142,213);stroke-width:3" clip-path="url(#clip125)" />
<text x="2290" y="431" style="font:10px Open Sans">sudo fc-cache -f</text>
<clipPath id="clip126"><path d="M2290,15 L3006,15 L3006,331 L2290,331 Z M2296,288 C2293.2382813,288 2291,290.2382813 2291,293 L2291,324 C2291,326.7617188 2293.2382813,329 2296,329 L2473,329 C2475.7617188,329 2478,326.7617188 2478,324 L2478,293 C2478,290.2382813 2475.7617188,288 2473,288 Z M2296,288 Z M2296,288" /></clipPath>
<path d="M2384.6796875,273 L2384.6796875,170 L2395,170" style="fill:none;stroke:rgb(1,124,152);stroke-width:3" clip-path="url(#clip126)" />
<clipPath id="clip127"><path d="M2290,15 L3006,15 L3006,331 L2290,331 Z M2296,288 C2293.2382813,288 2291,290.2382813 2291,293 L2291,324 C2291,326.7617188 2293.2382813,329 2296,329 L2473,329 C2475.7617188,329 2478,326.7617188 2478,324 L2478,293 C2478,290.2382813 2475.7617188,288 2473,288 Z M2296,288 Z M2296,288" /></clipPath>
<path d="M2384.6796875,273 L2384.6796875,234 L2395,234" style="fill:none;stroke:rgb(1,124,152);stroke-width:3" clip-path="url(#clip127)" />
<clipPath id="clip128"><path d="M2289,14 L3007,14 L3007,332 L2289,332 L2289,14 Z" /></clipPath>
<path d="M2384.6015625,288 L2384.6796875,273" style="fill:none;stroke:rgb(1,124,152);stroke-width:3" clip-path="url(#clip128)" />
<clipPath id="clip129"><path d="M2289,286 L2481,286 L2481,332 L2289,332 L2289,286 Z" /></clipPath>
<path d="M2296,288 C2293.2382813,288 2291,290.2382813 2291,293 L2291,324 C2291,326.7617188 2293.2382813,329 2296,329 L2473,329 C2475.7617188,329 2478,326.7617188 2478,324 L2478,293 C2478,290.2382813 2475.7617188,288 2473,288 Z M2296,288" style="fill:rgb(220,230,242);stroke:none" clip-path="url(#clip129)" />
<clipPath id="clip130"><path d="M2289,286 L2481,286 L2481,332 L2289,332 L2289,286 Z" /></clipPath>
<path d="M2296,288 C2293.2382813,288 2291,290.2382813 2291,293 L2291,324 C2291,326.7617188 2293.2382813,329 2296,329 L2473,329 C2475.7617188,329 2478,326.7617188 2478,324 L2478,293 C2478,290.2382813 2475.7617188,288 2473,288 Z M2296,288" style="fill:none;stroke:rgb(85,142,213);stroke-width:2" clip-path="url(#clip130)" />
<text x="2320" y="312" style="font:13px Open Sans">Create menu item</text>
<clipPath id="clip131"><path d="M2303,302 L2318,302 L2318,317 L2303,317 L2303,302 Z" /></clipPath>
<path d="M2306.4406738,303 C2305.0949707,303 2304.0031738,304.0917969 2304.0031738,305.4375 L2304.0031738,313.5625 C2304.0031738,314.9082031 2305.0949707,316 2306.4406738,316 L2314.5656738,316 C2315.911377,316 2317.0031738,314.9082031 2317.0031738,313.5625 L2317.0031738,305.4375 C2317.0031738,304.0917969 2315.911377,303 2314.5656738,303 Z M2306.4406738,303" style="fill:rgb(139,186,193);stroke:none" clip-path="url(#clip131)" />
<clipPath id="clip132"><path d="M2303,302 L2318,302 L2318,317 L2303,317 L2303,302 Z" /></clipPath>
<path d="M2313.3342285,307.2116699 C2313.1311035,307.4116211 2312.8486328,307.7670898 2312.4868164,308.28125 C2312.125,308.7922363 2311.8203125,309.3222656 2311.5759277,309.8681641 C2311.3823242,310.2966309 2311.2077637,310.8203125 2311.0522461,311.439209 C2310.8967285,312.0581055 2310.8205566,312.565918 2310.8205566,312.9626465 L2309.411377,312.9626465 C2309.4526367,311.7248535 2309.8588867,310.4362793 2310.630127,309.1000977 C2311.128418,308.2717285 2311.5441895,307.6940918 2311.8806152,307.3671875 L2308.4401855,307.3671875 L2308.4592285,306.1484375 L2313.3342285,306.1484375 Z M2313.3342285,307.2116699" style="fill:rgb(255,255,255);stroke:none" clip-path="url(#clip132)" />
<clipPath id="clip133"><path d="M2379,275 L2392,275 L2392,288 L2379,288 L2379,275 Z" /></clipPath>
<path d="M2389.5,281 C2389.5,278.515625 2387.484375,276.5 2385,276.5 C2382.515625,276.5 2380.5,278.515625 2380.5,281 C2380.5,283.484375 2382.515625,285.5 2385,285.5 C2387.484375,285.5 2389.5,283.484375 2389.5,281 Z M2389.5,281" style="fill:rgb(250,250,250);stroke:none" clip-path="url(#clip133)" />
<clipPath id="clip134"><path d="M2379,275 L2392,275 L2392,288 L2379,288 L2379,275 Z" /></clipPath>
<path d="M2389.5,281 C2389.5,278.515625 2387.484375,276.5 2385,276.5 C2382.515625,276.5 2380.5,278.515625 2380.5,281 C2380.5,283.484375 2382.515625,285.5 2385,285.5 C2387.484375,285.5 2389.5,283.484375 2389.5,281 Z M2389.5,281" style="fill:none;stroke:rgb(1,124,152)" clip-path="url(#clip134)" />
<clipPath id="clip135"><path d="M2379,275 L2392,275 L2392,288 L2379,288 L2379,275 Z" /></clipPath>
<path d="M2383,281 L2387,281" style="fill:none;stroke:rgb(150,160,200)" clip-path="url(#clip135)" />
<clipPath id="clip136"><path d="M2393,15 L3006,15 L3006,172 L2393,172 Z M2395,143 L2395,169 L2715,169 L2715,143 Z M2395,143 Z M2395,143" /></clipPath>
<path d="M2730,170 L2739,170" style="fill:none;stroke:rgb(1,124,152);stroke-width:3" clip-path="url(#clip136)" />
<clipPath id="clip137"><path d="M2392,14 L3007,14 L3007,173 L2392,173 L2392,14 Z" /></clipPath>
<path d="M2715,170 L2730,170" style="fill:none;stroke:rgb(1,124,152);stroke-width:3" clip-path="url(#clip137)" />
<clipPath id="clip138"><path d="M2392,140 L2719,140 L2719,173 L2392,173 L2392,140 Z" /></clipPath>
<path d="M2395,170 L2715,170 Z M2395,170" style="fill:none;stroke:rgb(85,142,213);stroke-width:3" clip-path="url(#clip138)" />
<text x="2406" y="159" style="font:10px Open Sans">Create file /usr/share/applications/xmind.desktop</text>
<clipPath id="clip139"><path d="M2717,150 L2730,150 L2730,163 L2717,163 L2717,150 Z" /></clipPath>
<path d="M2727.5,156 C2727.5,153.515625 2725.484375,151.5 2723,151.5 C2720.515625,151.5 2718.5,153.515625 2718.5,156 C2718.5,158.484375 2720.515625,160.5 2723,160.5 C2725.484375,160.5 2727.5,158.484375 2727.5,156 Z M2727.5,156" style="fill:rgb(250,250,250);stroke:none" clip-path="url(#clip139)" />
<clipPath id="clip140"><path d="M2717,150 L2730,150 L2730,163 L2717,163 L2717,150 Z" /></clipPath>
<path d="M2727.5,156 C2727.5,153.515625 2725.484375,151.5 2723,151.5 C2720.515625,151.5 2718.5,153.515625 2718.5,156 C2718.5,158.484375 2720.515625,160.5 2723,160.5 C2725.484375,160.5 2727.5,158.484375 2727.5,156 Z M2727.5,156" style="fill:none;stroke:rgb(1,124,152)" clip-path="url(#clip140)" />
<clipPath id="clip141"><path d="M2717,150 L2730,150 L2730,163 L2717,163 L2717,150 Z" /></clipPath>
<path d="M2721,156 L2725,156" style="fill:none;stroke:rgb(150,160,200)" clip-path="url(#clip141)" />
<clipPath id="clip142"><path d="M2736,14 L3007,14 L3007,173 L2736,173 L2736,14 Z" /></clipPath>
<path d="M2739,170 L3003,170 Z M2739,170" style="fill:none;stroke:rgb(85,142,213);stroke-width:3" clip-path="url(#clip142)" />
<text x="2750" y="33" style="font:10px Open Sans">[Desktop Entry]</text>
<text x="2750" y="51" style="font:10px Open Sans">Comment=Create and share mind maps.</text>
<text x="2750" y="69" style="font:10px Open Sans">Exec=/opt/xmind/$(DIR)/XMind %F</text>
<text x="2750" y="87" style="font:10px Open Sans">Name=XMind</text>
<text x="2750" y="105" style="font:10px Open Sans">Terminal=false</text>
<text x="2750" y="123" style="font:10px Open Sans">Type=Application</text>
<text x="2750" y="141" style="font:10px Open Sans">Categories=Office;</text>
<text x="2750" y="159" style="font:10px Open Sans">Icon=xmind</text>
<clipPath id="clip143"><path d="M2393,173 L2728,173 L2728,268 L2393,268 Z M2395,207 L2395,233 L2597,233 L2597,207 Z M2395,207 Z M2395,207" /></clipPath>
<path d="M2612,234 L2612,202 L2621,202" style="fill:none;stroke:rgb(1,124,152);stroke-width:3" clip-path="url(#clip143)" />
<clipPath id="clip144"><path d="M2393,173 L2728,173 L2728,268 L2393,268 Z M2395,207 L2395,233 L2597,233 L2597,207 Z M2395,207 Z M2395,207" /></clipPath>
<path d="M2612,234 L2621,234" style="fill:none;stroke:rgb(1,124,152);stroke-width:3" clip-path="url(#clip144)" />
<clipPath id="clip145"><path d="M2393,173 L2728,173 L2728,268 L2393,268 Z M2395,207 L2395,233 L2597,233 L2597,207 Z M2395,207 Z M2395,207" /></clipPath>
<path d="M2612,234 L2612,266 L2621,266" style="fill:none;stroke:rgb(1,124,152);stroke-width:3" clip-path="url(#clip145)" />
<clipPath id="clip146"><path d="M2392,172 L2729,172 L2729,269 L2392,269 L2392,172 Z" /></clipPath>
<path d="M2597,234 L2612,234" style="fill:none;stroke:rgb(1,124,152);stroke-width:3" clip-path="url(#clip146)" />
<clipPath id="clip147"><path d="M2392,204 L2601,204 L2601,237 L2392,237 L2392,204 Z" /></clipPath>
<path d="M2395,234 L2597,234 Z M2395,234" style="fill:none;stroke:rgb(85,142,213);stroke-width:3" clip-path="url(#clip147)" />
<text x="2406" y="223" style="font:10px Open Sans">Refresh gnome-shell if needed</text>
<clipPath id="clip148"><path d="M2599,214 L2612,214 L2612,227 L2599,227 L2599,214 Z" /></clipPath>
<path d="M2609.5,220 C2609.5,217.515625 2607.484375,215.5 2605,215.5 C2602.515625,215.5 2600.5,217.515625 2600.5,220 C2600.5,222.484375 2602.515625,224.5 2605,224.5 C2607.484375,224.5 2609.5,222.484375 2609.5,220 Z M2609.5,220" style="fill:rgb(250,250,250);stroke:none" clip-path="url(#clip148)" />
<clipPath id="clip149"><path d="M2599,214 L2612,214 L2612,227 L2599,227 L2599,214 Z" /></clipPath>
<path d="M2609.5,220 C2609.5,217.515625 2607.484375,215.5 2605,215.5 C2602.515625,215.5 2600.5,217.515625 2600.5,220 C2600.5,222.484375 2602.515625,224.5 2605,224.5 C2607.484375,224.5 2609.5,222.484375 2609.5,220 Z M2609.5,220" style="fill:none;stroke:rgb(1,124,152)" clip-path="url(#clip149)" />
<clipPath id="clip150"><path d="M2599,214 L2612,214 L2612,227 L2599,227 L2599,214 Z" /></clipPath>
<path d="M2603,220 L2607,220" style="fill:none;stroke:rgb(150,160,200)" clip-path="url(#clip150)" />
<clipPath id="clip151"><path d="M2618,172 L2729,172 L2729,205 L2618,205 L2618,172 Z" /></clipPath>
<path d="M2621,202 L2725,202 Z M2621,202" style="fill:none;stroke:rgb(85,142,213);stroke-width:3" clip-path="url(#clip151)" />
<text x="2632" y="191" style="font:10px Open Sans">Press [Alt]+[F]</text>
<clipPath id="clip152"><path d="M2618,204 L2683,204 L2683,237 L2618,237 L2618,204 Z" /></clipPath>
<path d="M2621,234 L2679,234 Z M2621,234" style="fill:none;stroke:rgb(85,142,213);stroke-width:3" clip-path="url(#clip152)" />
<text x="2632" y="223" style="font:10px Open Sans">type r</text>
<clipPath id="clip153"><path d="M2618,236 L2723,236 L2723,269 L2618,269 L2618,236 Z" /></clipPath>
<path d="M2621,266 L2719,266 Z M2621,266" style="fill:none;stroke:rgb(85,142,213);stroke-width:3" clip-path="url(#clip153)" />
<text x="2632" y="255" style="font:10px Open Sans">Press [Enter]</text>
<clipPath id="clip154"><path d="M2657,286 L2748,286 L2748,332 L2657,332 L2657,286 Z" /></clipPath>
<path d="M2664,288 C2661.2382813,288 2659,290.2382813 2659,293 L2659,324 C2659,326.7617188 2661.2382813,329 2664,329 L2740,329 C2742.7617188,329 2745,326.7617188 2745,324 L2745,293 C2745,290.2382813 2742.7617188,288 2740,288 Z M2664,288" style="fill:rgb(220,230,242);stroke:none" clip-path="url(#clip154)" />
<clipPath id="clip155"><path d="M2657,286 L2748,286 L2748,332 L2657,332 L2657,286 Z" /></clipPath>
<path d="M2664,288 C2661.2382813,288 2659,290.2382813 2659,293 L2659,324 C2659,326.7617188 2661.2382813,329 2664,329 L2740,329 C2742.7617188,329 2745,326.7617188 2745,324 L2745,293 C2745,290.2382813 2742.7617188,288 2740,288 Z M2664,288" style="fill:none;stroke:rgb(85,142,213);stroke-width:2" clip-path="url(#clip155)" />
<text x="2688" y="312" style="font:13px Open Sans">Done</text>
<clipPath id="clip156"><path d="M2671,302 L2686,302 L2686,317 L2671,317 L2671,302 Z" /></clipPath>
<path d="M2673.625,303 C2672.7268066,303 2672,303.7268066 2672,304.625 L2672,314.375 C2672,315.2731934 2672.7268066,316 2673.625,316 L2683.375,316 C2684.2731934,316 2685,315.2731934 2685,314.375 L2685,304.625 C2685,303.7268066 2684.2731934,303 2683.375,303 Z M2673.625,303" style="fill:rgb(255,204,128);stroke:none" clip-path="url(#clip156)" />
<clipPath id="clip157"><path d="M2671,302 L2686,302 L2686,317 L2671,317 L2671,302 Z" /></clipPath>
<path d="M2673.625,303 C2672.7268066,303 2672,303.7268066 2672,304.625 L2672,314.375 C2672,315.2731934 2672.7268066,316 2673.625,316 L2683.375,316 C2684.2731934,316 2685,315.2731934 2685,314.375 L2685,304.625 C2685,303.7268066 2684.2731934,303 2683.375,303 Z M2673.625,303" style="fill:rgb(255,152,0);stroke:none" clip-path="url(#clip157)" />
<clipPath id="clip158"><path d="M2671,302 L2686,302 L2686,317 L2671,317 L2671,302 Z" /></clipPath>
<path d="M2677.8491211,307.2368164 L2677.8491211,305.6943359 C2677.8903809,304.9960938 2677.6872559,304.4089355 2677.2524414,304.4121094 C2676.4970703,304.4121094 2676.5192871,305.0119629 2676.5192871,305.0119629 C2676.3828125,307.1416016 2674.3896484,307.8017578 2674.3896484,307.8017578 L2674.3896484,312.3276367 L2674.65625,312.3625488 C2676.151123,312.3625488 2675.967041,313.4543457 2677.4396973,313.4575195 C2679.3979492,313.467041 2680.8325195,313.4638672 2681.4768066,311.9689941 C2681.7275391,311.3945313 2681.857666,310.5979004 2681.857666,309.4997559 C2681.857666,307.890625 2681.1118164,307.2368164 2680.4516602,307.2368164 Z M2673.8659668,312.2800293 L2672.4694824,312.2800293 L2672.4694824,307.9509277 L2673.8659668,307.9509277 Z M2673.1677246,308.7380371 C2673.0026855,308.7380371 2672.8693848,308.8713379 2672.8693848,309.0332031 C2672.8693848,309.1950684 2673.0026855,309.3283691 2673.1677246,309.3283691 C2673.3327637,309.3283691 2673.4660645,309.1950684 2673.4660645,309.0332031 C2673.4660645,308.8713379 2673.3327637,308.7380371 2673.1677246,308.7380371 Z M2673.1677246,308.7380371" style="fill:rgb(255,204,128);stroke:none" clip-path="url(#clip158)" />
<clipPath id="clip159"><path d="M2671,302 L2686,302 L2686,317 L2671,317 L2671,302 Z" /></clipPath>
<path d="M2677.8491211,307.2368164 L2677.8491211,305.6943359 C2677.8903809,304.9960938 2677.6872559,304.4089355 2677.2524414,304.4121094 C2676.4970703,304.4121094 2676.5192871,305.0119629 2676.5192871,305.0119629 C2676.3828125,307.1416016 2674.3896484,307.8017578 2674.3896484,307.8017578 L2674.3896484,312.3276367 L2674.65625,312.3625488 C2676.151123,312.3625488 2675.967041,313.4543457 2677.4396973,313.4575195 C2679.3979492,313.467041 2680.8325195,313.4638672 2681.4768066,311.9689941 C2681.7275391,311.3945313 2681.857666,310.5979004 2681.857666,309.4997559 C2681.857666,307.890625 2681.1118164,307.2368164 2680.4516602,307.2368164 Z M2673.8659668,312.2800293 L2672.4694824,312.2800293 L2672.4694824,307.9509277 L2673.8659668,307.9509277 Z M2673.1677246,308.7380371 C2673.0026855,308.7380371 2672.8693848,308.8713379 2672.8693848,309.0332031 C2672.8693848,309.1950684 2673.0026855,309.3283691 2673.1677246,309.3283691 C2673.3327637,309.3283691 2673.4660645,309.1950684 2673.4660645,309.0332031 C2673.4660645,308.8713379 2673.3327637,308.7380371 2673.1677246,308.7380371 Z M2673.1677246,308.7380371" style="fill:rgb(255,255,255);stroke:none" clip-path="url(#clip159)" />
</svg>
